<svg width="67" height="61" viewBox="0 0 67 61" fill="none" xmlns="http://www.w3.org/2000/svg">
<path d="M55.5372 27.0094L56.3656 24.9244L53.7452 24.8342C53.5747 25.2193 53.5319 25.6489 53.6232 26.0601C53.7145 26.4713 53.935 26.8425 54.2524 27.1193L55.5372 27.0094Z" fill="#E4897B"/>
<path d="M56.6502 23.5212L54.5961 23.9185L53.7452 24.8342L56.3656 24.9244L56.6502 23.5212Z" fill="#E4897B"/>
<path d="M40.1053 3.38955C36.2944 1.737 32.1857 0.881694 28.0319 0.876266C13.3805 0.876266 1.79171 11.5324 0.19696 25.5161L2.01431 24.6398L29.6267 30.4609L40.1053 3.38955Z" fill="#407BFF"/>
<path opacity="0.4" d="M40.1053 3.38955C36.2944 1.737 32.1857 0.881694 28.0319 0.876266C13.3805 0.876266 1.79171 11.5324 0.19696 25.5161L2.01431 24.6398L29.6267 30.4609L40.1053 3.38955Z" fill="white"/>
<path d="M41.9198 2.51329C38.1073 0.859521 33.9965 0.00418076 29.8408 0C15.1894 0 3.60061 10.6561 2.00586 24.6398L31.444 29.5847L41.9198 2.51329Z" fill="#407BFF"/>
<path opacity="0.6" d="M41.9198 2.51329C38.1073 0.859521 33.9965 0.00418076 29.8408 0C15.1894 0 3.60061 10.6561 2.00586 24.6398L31.444 29.5847L41.9198 2.51329Z" fill="white"/>
<path d="M45.7828 1.32708L35.3013 28.3985L61.3387 43.8952L63.156 43.0189C63.156 43.0189 65.1678 33.6166 64.886 28.3872C64.252 16.7224 47.5945 0.439545 47.5945 0.439545L45.7828 1.32708Z" fill="#407BFF"/>
<path opacity="0.1" d="M45.7828 1.32708L35.3013 28.3985L61.3387 43.8952L63.156 43.0189C63.156 43.0189 65.1678 33.6166 64.886 28.3872C64.252 16.7224 47.5945 0.439545 47.5945 0.439545L45.7828 1.32708Z" fill="white"/>
<path d="M47.5944 0.445175L37.1158 27.5222L63.156 43.0189C65.7918 38.2973 67.0217 32.9201 66.7005 27.5222C66.0468 15.4319 58.2308 5.04066 47.5944 0.445175Z" fill="#407BFF"/>
<path opacity="0.2" d="M47.5944 0.445175L37.1158 27.5222L63.156 43.0189C65.7918 38.2973 67.0217 32.9201 66.7005 27.5222C66.0468 15.4319 58.2308 5.04066 47.5944 0.445175Z" fill="white"/>
<g style="mix-blend-mode:color-dodge" opacity="0.4">
<path d="M62.4798 40.7367C62.4679 40.7404 62.4551 40.7404 62.4432 40.7367L39.1727 26.877C39.1583 26.8682 39.1476 26.8545 39.1424 26.8385C39.1373 26.8225 39.138 26.8051 39.1445 26.7896L48.4426 2.73869C48.4459 2.72919 48.4512 2.72051 48.4582 2.71324C48.4651 2.70597 48.4736 2.70027 48.4829 2.69654C48.4922 2.6928 48.5023 2.69111 48.5123 2.69157C48.5224 2.69204 48.5322 2.69466 48.5412 2.69925C53.2449 5.073 57.2517 8.62735 60.1694 13.0144C63.0792 17.3601 64.7729 22.4053 65.0748 27.6264C65.3332 32.1294 64.4615 36.6256 62.539 40.7057C62.5348 40.7152 62.5286 40.7236 62.5208 40.7304C62.513 40.7373 62.5038 40.7423 62.4939 40.7451L62.4798 40.7367ZM39.3023 26.7699L62.4544 40.5592C64.3445 36.5176 65.1995 32.0694 64.9424 27.6152C64.3788 17.1619 58.0984 7.67511 48.5553 2.84295L39.3023 26.7699Z" fill="#FAFAFA"/>
</g>
<g style="mix-blend-mode:color-dodge" opacity="0.4">
<path d="M30.3649 27.7589L3.89927 23.3155C3.88134 23.3119 3.86534 23.3019 3.85419 23.2874C3.84743 23.2702 3.84743 23.251 3.85419 23.2338C4.88752 17.1636 8.04164 11.6571 12.7549 7.69483C17.5687 3.73554 23.6165 1.58633 29.8492 1.62011C33.237 1.62015 36.5978 2.22115 39.7756 3.39519C39.7847 3.39752 39.7931 3.4021 39.8 3.40849C39.8069 3.41489 39.8121 3.42291 39.8151 3.43182C39.8223 3.44991 39.8223 3.47008 39.8151 3.48817L30.4381 27.7194C30.4317 27.7329 30.4211 27.744 30.4079 27.7511C30.3948 27.7582 30.3797 27.7609 30.3649 27.7589ZM3.99507 23.1887L30.3198 27.6095L39.6488 3.50226C36.5061 2.35062 33.1851 1.76121 29.838 1.76099C16.8348 1.76099 6.21532 10.5688 3.99507 23.1887Z" fill="#FAFAFA"/>
</g>
<path d="M29.6267 30.4609L2.01433 24.6398L0.188537 25.5217C0.00166371 27.163 -0.0464063 28.8172 0.0448396 30.4666C0.929562 46.8086 14.8935 60.0512 31.2327 60.0512C41.8832 60.0512 50.9136 54.4161 55.664 45.9633L29.6267 30.4609Z" fill="#407BFF"/>
<path opacity="0.2" d="M29.6267 30.4609L2.01433 24.6398L0.188537 25.5217C0.00166371 27.163 -0.0464063 28.8172 0.0448396 30.4666C0.929562 46.8086 14.8935 60.0512 31.2327 60.0512C41.8832 60.0512 50.9136 54.4161 55.664 45.9633L29.6267 30.4609Z" fill="black"/>
<path d="M31.444 29.5847L2.00587 24.6398C1.81944 26.2811 1.77044 27.9352 1.85935 29.5847C2.74689 45.9267 16.708 59.1693 33.0472 59.1693C43.7005 59.1693 52.7309 53.5342 57.4813 45.0814L31.444 29.5847Z" fill="#407BFF"/>
<path opacity="0.1" d="M31.444 29.5847L2.00587 24.6398C1.81944 26.2811 1.77044 27.9352 1.85935 29.5847C2.74689 45.9267 16.708 59.1693 33.0472 59.1693C43.7005 59.1693 52.7309 53.5342 57.4813 45.0814L31.444 29.5847Z" fill="black"/>
<g style="mix-blend-mode:color-dodge" opacity="0.4">
<path d="M33.0472 57.5492C17.5815 57.5492 4.30785 44.9631 3.46258 29.4973C3.41327 28.5353 3.41327 27.5713 3.46258 26.6093C3.46222 26.5994 3.46435 26.5896 3.46879 26.5807C3.47322 26.5718 3.4798 26.5642 3.48793 26.5586C3.49533 26.5515 3.50429 26.5463 3.51408 26.5434C3.52387 26.5404 3.53422 26.5398 3.54429 26.5417L30.8552 31.1287H30.8777L55.1822 45.6055C55.1906 45.6102 55.198 45.6167 55.2038 45.6245C55.2096 45.6322 55.2138 45.6411 55.216 45.6505C55.2225 45.6678 55.2225 45.6868 55.216 45.7041C52.8524 49.3579 49.6023 52.3541 45.7687 54.4132C41.8495 56.486 37.4807 57.5629 33.0472 57.5492ZM3.60627 26.6938C3.56401 27.6236 3.56683 28.5619 3.60627 29.4889C4.45155 44.8813 17.6435 57.4083 33.036 57.4083C42.179 57.4083 50.1979 53.1397 55.0442 45.6984L30.8129 31.2668L3.60627 26.6938Z" fill="#FAFAFA"/>
</g>
</svg>
