<svg width="72" height="76" viewBox="0 0 72 76" fill="none" xmlns="http://www.w3.org/2000/svg">
<path opacity="0.15" d="M16.4927 52.441H15.6805C12.5986 52.441 9.29555 52.8517 6.42121 54.0204C3.95298 55.0266 -1.19556 58.0453 0.555218 61.416C2.0533 64.3039 6.22267 65.5989 9.05188 66.56C11.9804 67.5708 14.7374 68.5816 17.6253 69.7187C19.9251 70.6079 22.3334 71.186 24.7863 71.4378C27.1733 71.7131 29.9574 71.3205 32.2226 72.1418C39.7942 74.8852 47.9705 77.2497 55.9212 74.0685C57.5456 73.4142 59.8018 71.7266 60.6365 70.1383C61.8097 67.8821 60.9569 65.7433 59.5716 63.9023C56.6116 59.9676 50.547 57.8919 46.0347 56.6826C39.9476 55.0311 33.2875 54.2234 27.0244 53.4338C25.2601 53.2127 23.7124 53.1811 21.9616 52.8517C20.1554 52.5446 18.3245 52.4072 16.4927 52.441Z" fill="black"/>
<path d="M65.6516 31.1523C69.1149 25.9435 64.6096 16.8585 55.5886 10.8605C46.5676 4.86239 36.4471 4.22257 32.9837 9.43137C29.5204 14.6402 34.0257 23.7251 43.0467 29.7232C52.0677 35.7213 62.1882 36.3611 65.6516 31.1523Z" fill="#6F4377"/>
<path opacity="0.75" d="M65.6516 31.1523C69.1149 25.9435 64.6096 16.8585 55.5886 10.8605C46.5676 4.86239 36.4471 4.22257 32.9837 9.43137C29.5204 14.6402 34.0257 23.7251 43.0467 29.7232C52.0677 35.7213 62.1882 36.3611 65.6516 31.1523Z" fill="white"/>
<path d="M42.7227 51.8138C42.4249 51.4258 41.2472 51.0467 41.2065 50.6226C41.175 50.2842 41.6578 49.9503 41.7931 49.684C41.9217 49.393 41.9722 49.0735 41.9398 48.7571C41.9073 48.4406 41.793 48.138 41.6081 47.8791C41.2201 47.306 40.3943 47.0895 40.0559 46.5254C39.7175 45.9614 39.7987 45.3026 39.1128 44.8333C37.9396 44.0346 36.595 45.0003 35.3586 44.9777C34.6547 44.9777 34.4155 44.346 33.8605 44.0166C33.323 43.7397 32.7082 43.6508 32.1142 43.7639C31.8131 43.8055 31.5249 43.9134 31.2704 44.0797C30.9681 44.3415 31.1667 44.4859 30.738 44.531C30.3835 44.4972 30.031 44.4445 29.6821 44.373C28.9542 44.3498 28.2385 44.5636 27.6426 44.9822C26.5867 45.6951 25.8737 46.7871 26.0272 48.0776C24.6735 47.834 23.8387 48.8086 23.5228 50.0495C23.3378 50.7895 23.1257 53.0863 24.15 53.4518C22.6835 53.0322 24.4975 58.4469 25.5443 57.4271C25.418 58.6003 26.4739 59.7961 27.444 60.315C27.8727 60.5451 28.4142 60.509 28.7977 60.6895C29.1813 60.87 29.3843 61.2491 29.7318 61.4341C30.1047 61.641 30.5287 61.738 30.9546 61.7138C31.1122 61.835 31.2781 61.945 31.4509 62.0432C31.8209 62.2418 32.2 62.4223 32.57 62.6208C33.3957 63.1091 34.2678 63.5142 35.1736 63.8301C35.3505 63.8783 35.5297 63.9174 35.7106 63.9474C36.0374 64.0231 36.3754 64.0384 36.7078 63.9925C36.9514 63.9429 37.0958 63.6947 37.2989 63.6857C37.6779 63.6857 37.9712 63.8166 38.3367 63.618C38.479 63.5331 38.5932 63.4083 38.6654 63.2592C38.7376 63.11 38.7645 62.943 38.7428 62.7787C39.3339 62.5937 39.4242 61.7454 39.1399 61.2897C39.0137 61.0889 38.862 60.9054 38.6887 60.7437C38.7074 60.6438 38.7074 60.5413 38.6887 60.4414C39.1912 60.4251 39.6833 60.2937 40.1271 60.0573C40.5708 59.8208 40.9544 59.4857 41.2482 59.0777C41.542 58.6697 41.7382 58.1996 41.8218 57.7038C41.9053 57.208 41.8739 56.6996 41.73 56.2178C41.4998 55.3154 41.7796 55.1981 42.3843 54.5528C43.1152 53.7812 43.4131 52.7028 42.7227 51.8138Z" fill="#6F4377"/>
<path opacity="0.35" d="M42.7227 51.8138C42.4249 51.4258 41.2472 51.0467 41.2065 50.6226C41.175 50.2842 41.6578 49.9503 41.7931 49.684C41.9217 49.393 41.9722 49.0735 41.9398 48.7571C41.9073 48.4406 41.793 48.138 41.6081 47.8791C41.2201 47.306 40.3943 47.0895 40.0559 46.5254C39.7175 45.9614 39.7987 45.3026 39.1128 44.8333C37.9396 44.0346 36.595 45.0003 35.3586 44.9777C34.6547 44.9777 34.4155 44.346 33.8605 44.0166C33.323 43.7397 32.7082 43.6508 32.1142 43.7639C31.8131 43.8055 31.5249 43.9134 31.2704 44.0797C30.9681 44.3415 31.1667 44.4859 30.738 44.531C30.3835 44.4972 30.031 44.4445 29.6821 44.373C28.9542 44.3498 28.2385 44.5636 27.6426 44.9822C26.5867 45.6951 25.8737 46.7871 26.0272 48.0776C24.6735 47.834 23.8387 48.8086 23.5228 50.0495C23.3378 50.7895 23.1257 53.0863 24.15 53.4518C22.6835 53.0322 24.4975 58.4469 25.5443 57.4271C25.418 58.6003 26.4739 59.7961 27.444 60.315C27.8727 60.5451 28.4142 60.509 28.7977 60.6895C29.1813 60.87 29.3843 61.2491 29.7318 61.4341C30.1047 61.641 30.5287 61.738 30.9546 61.7138C31.1122 61.835 31.2781 61.945 31.4509 62.0432C31.8209 62.2418 32.2 62.4223 32.57 62.6208C33.3957 63.1091 34.2678 63.5142 35.1736 63.8301C35.3505 63.8783 35.5297 63.9174 35.7106 63.9474C36.0374 64.0231 36.3754 64.0384 36.7078 63.9925C36.9514 63.9429 37.0958 63.6947 37.2989 63.6857C37.6779 63.6857 37.9712 63.8166 38.3367 63.618C38.479 63.5331 38.5932 63.4083 38.6654 63.2592C38.7376 63.11 38.7645 62.943 38.7428 62.7787C39.3339 62.5937 39.4242 61.7454 39.1399 61.2897C39.0137 61.0889 38.862 60.9054 38.6887 60.7437C38.7074 60.6438 38.7074 60.5413 38.6887 60.4414C39.1912 60.4251 39.6833 60.2937 40.1271 60.0573C40.5708 59.8208 40.9544 59.4857 41.2482 59.0777C41.542 58.6697 41.7382 58.1996 41.8218 57.7038C41.9053 57.208 41.8739 56.6996 41.73 56.2178C41.4998 55.3154 41.7796 55.1981 42.3843 54.5528C43.1152 53.7812 43.4131 52.7028 42.7227 51.8138Z" fill="black"/>
<path d="M12.4316 45.3973C12.5191 45.3118 12.5963 45.2164 12.6618 45.1131C12.9568 44.5348 13.1376 43.9052 13.1942 43.2585C13.4469 41.7469 13.7041 40.2308 13.9613 38.7191C14.1103 38.0623 14.15 37.3854 14.0786 36.7157C14.0389 36.3817 13.9189 36.0623 13.7287 35.7848C13.5385 35.5074 13.2839 35.2803 12.9866 35.1228C12.6825 34.9805 12.3344 34.9643 12.0183 35.0775C11.7022 35.1908 11.4436 35.4244 11.299 35.7275C11.2539 35.0777 11.1862 34.4279 11.087 33.7827C11.0725 33.4353 10.944 33.1023 10.7215 32.8351C10.2387 32.3839 9.41742 32.6681 8.91655 33.1284C9.14668 31.5265 10.1168 30.051 10.0446 28.4356C10.0494 28.1266 9.95792 27.8239 9.78291 27.5692C9.43998 27.1451 8.81727 27.118 8.2758 27.118L9.86865 26.2607C10.2638 26.077 10.6252 25.8284 10.9381 25.5252C11.0917 25.3722 11.2062 25.1845 11.2722 24.978C11.3382 24.7715 11.3536 24.5521 11.3171 24.3384C11.2666 24.1274 11.1351 23.9448 10.9511 23.8299C10.767 23.7151 10.5451 23.6773 10.3334 23.7248C10.6087 23.5071 10.9123 23.328 11.2359 23.1923C11.5382 23.0118 11.8044 22.6508 11.6871 22.3304C11.6236 22.1993 11.5232 22.0895 11.3983 22.0146C10.9821 21.755 10.512 21.594 10.0239 21.5439C9.53592 21.4939 9.04292 21.5561 8.58264 21.7258C7.66473 22.0735 6.81881 22.5874 6.08734 23.2419C6.23173 22.9983 5.9655 22.6779 5.68122 22.6689C5.39776 22.6912 5.13332 22.8202 4.94121 23.0299C3.398 24.4196 2.49554 26.4051 2.04431 28.4446C1.98938 28.3799 1.92162 28.3273 1.84531 28.2901C1.76901 28.2529 1.68582 28.232 1.601 28.2286C1.51619 28.2252 1.43159 28.2394 1.35256 28.2704C1.27353 28.3014 1.20178 28.3484 1.14185 28.4085C0.913286 28.6576 0.772279 28.9745 0.740254 29.311C0.561934 30.2966 0.571118 31.3069 0.767327 32.2891C0.946997 33.1332 1.3089 33.9278 1.82772 34.6174C1.24112 34.0399 0.144632 34.1662 0.0227998 35.0687C-0.166717 36.3457 0.862087 37.1398 1.74199 37.8483C1.55698 38.0152 1.2682 38.0242 1.11027 38.2995C1.0078 38.4975 0.954316 38.7172 0.954316 38.9402C0.954316 39.1632 1.0078 39.3829 1.11027 39.581C1.5615 40.3977 2.50005 40.9753 3.26715 41.4355C1.46223 42.6223 5.71733 44.4091 6.54759 44.9235C7.06773 45.2108 7.49745 45.6374 7.78848 46.1554C7.9734 46.4786 8.13767 46.8132 8.28031 47.1571C8.36605 47.3737 8.44276 47.834 8.66837 47.9603C9.39485 48.3664 10.8298 46.6066 11.3216 46.2005C11.7062 45.9536 12.0768 45.6854 12.4316 45.3973Z" fill="#6F4377"/>
<path opacity="0.2" d="M12.4316 45.3973C12.5191 45.3118 12.5963 45.2164 12.6618 45.1131C12.9568 44.5348 13.1376 43.9052 13.1942 43.2585C13.4469 41.7469 13.7041 40.2308 13.9613 38.7191C14.1103 38.0623 14.15 37.3854 14.0786 36.7157C14.0389 36.3817 13.9189 36.0623 13.7287 35.7848C13.5385 35.5074 13.2839 35.2803 12.9866 35.1228C12.6825 34.9805 12.3344 34.9643 12.0183 35.0775C11.7022 35.1908 11.4436 35.4244 11.299 35.7275C11.2539 35.0777 11.1862 34.4279 11.087 33.7827C11.0725 33.4353 10.944 33.1023 10.7215 32.8351C10.2387 32.3839 9.41742 32.6681 8.91655 33.1284C9.14668 31.5265 10.1168 30.051 10.0446 28.4356C10.0494 28.1266 9.95792 27.8239 9.78291 27.5692C9.43998 27.1451 8.81727 27.118 8.2758 27.118L9.86865 26.2607C10.2638 26.077 10.6252 25.8284 10.9381 25.5252C11.0917 25.3722 11.2062 25.1845 11.2722 24.978C11.3382 24.7715 11.3536 24.5521 11.3171 24.3384C11.2666 24.1274 11.1351 23.9448 10.9511 23.8299C10.767 23.7151 10.5451 23.6773 10.3334 23.7248C10.6087 23.5071 10.9123 23.328 11.2359 23.1923C11.5382 23.0118 11.8044 22.6508 11.6871 22.3304C11.6236 22.1993 11.5232 22.0895 11.3983 22.0146C10.9821 21.755 10.512 21.594 10.0239 21.5439C9.53592 21.4939 9.04292 21.5561 8.58264 21.7258C7.66473 22.0735 6.81881 22.5874 6.08734 23.2419C6.23173 22.9983 5.9655 22.6779 5.68122 22.6689C5.39776 22.6912 5.13332 22.8202 4.94121 23.0299C3.398 24.4196 2.49554 26.4051 2.04431 28.4446C1.98938 28.3799 1.92162 28.3273 1.84531 28.2901C1.76901 28.2529 1.68582 28.232 1.601 28.2286C1.51619 28.2252 1.43159 28.2394 1.35256 28.2704C1.27353 28.3014 1.20178 28.3484 1.14185 28.4085C0.913286 28.6576 0.772279 28.9745 0.740254 29.311C0.561934 30.2966 0.571118 31.3069 0.767327 32.2891C0.946997 33.1332 1.3089 33.9278 1.82772 34.6174C1.24112 34.0399 0.144632 34.1662 0.0227998 35.0687C-0.166717 36.3457 0.862087 37.1398 1.74199 37.8483C1.55698 38.0152 1.2682 38.0242 1.11027 38.2995C1.0078 38.4975 0.954316 38.7172 0.954316 38.9402C0.954316 39.1632 1.0078 39.3829 1.11027 39.581C1.5615 40.3977 2.50005 40.9753 3.26715 41.4355C1.46223 42.6223 5.71733 44.4091 6.54759 44.9235C7.06773 45.2108 7.49745 45.6374 7.78848 46.1554C7.9734 46.4786 8.13767 46.8132 8.28031 47.1571C8.36605 47.3737 8.44276 47.834 8.66837 47.9603C9.39485 48.3664 10.8298 46.6066 11.3216 46.2005C11.7062 45.9536 12.0768 45.6854 12.4316 45.3973Z" fill="black"/>
<path d="M40.2139 51.1189L40.6877 51.0152C40.6831 50.767 40.5794 50.6903 40.2139 51.1189Z" fill="#37474F"/>
<path d="M47.5418 55.1439C47.7712 54.6593 47.8543 54.1183 47.781 53.5872C47.7268 53.2126 47.3658 52.6847 47.5689 52.3192C47.6862 52.1071 47.9614 52.062 48.1329 51.8996C48.3829 51.6727 48.543 51.3637 48.5841 51.0287C48.5766 50.6387 48.542 50.2497 48.4804 49.8645C48.4804 49.3591 48.7962 49.129 49.0128 48.7274C49.2421 48.292 49.3947 47.8203 49.4641 47.3331C49.5678 46.5705 48.9903 46.0832 49.3873 45.3748C49.5108 45.1507 49.5862 44.9032 49.6084 44.6483C49.6445 44.3595 49.9108 44.1655 49.9514 43.8767C50.012 43.6743 50.0228 43.4602 49.9827 43.2528C49.9426 43.0453 49.8529 42.8507 49.7212 42.6854C48.7782 41.8552 47.6095 42.7757 46.8424 43.3307C45.6421 44.1926 44.0718 44.2648 42.8535 45.0725C42.3294 45.4196 41.7284 45.6333 41.1027 45.6952C40.9629 45.6952 39.7491 45.7944 39.7491 45.6952C39.6057 46.5385 39.5679 47.3964 39.6362 48.2491C39.7061 49.1139 40.1011 49.9201 40.7418 50.5053C40.8967 50.606 41.0141 50.7551 41.0757 50.9294L40.6741 51.0197C40.6638 51.2525 40.6306 51.4838 40.5748 51.7101C40.4951 52.0076 40.4792 52.3185 40.5282 52.6226C40.5772 52.9267 40.69 53.217 40.8591 53.4744C41.0369 53.6656 41.1641 53.8983 41.2291 54.1512C41.2093 54.4448 41.106 54.7266 40.9313 54.9634C40.7419 55.3356 40.6531 55.7509 40.6737 56.168C40.6943 56.5851 40.8235 56.9896 41.0486 57.3414C41.2483 57.5672 41.3934 57.8358 41.4728 58.1265C41.4594 58.4108 41.4124 58.6926 41.3329 58.9658C41.2832 59.4171 41.5314 59.6968 41.6352 60.0939C41.6509 60.2277 41.675 60.3603 41.7074 60.491C41.7886 60.6895 41.942 60.861 42.0323 61.0595C42.1563 61.3342 42.215 61.6338 42.2038 61.9349C42.1635 62.5826 42.2029 63.2327 42.3211 63.8707C42.4589 64.4561 42.8014 64.973 43.2867 65.3282C43.5146 65.5197 43.7592 65.6904 44.0177 65.8381C44.3832 66.0366 44.7622 66.2171 45.1322 66.4156C45.9584 66.9031 46.8304 67.3081 47.7358 67.6249C47.9118 67.6746 48.0968 67.7107 48.2728 67.7423C48.5997 67.8179 48.9376 67.8331 49.27 67.7874C49.5182 67.7332 49.6626 67.4896 49.8656 67.4806C50.2447 67.4806 50.5335 67.6114 50.9035 67.4129C51.0445 67.3267 51.1578 67.2017 51.2298 67.0529C51.3018 66.9041 51.3295 66.7377 51.3096 66.5736C51.8962 66.3886 51.9864 65.5403 51.7021 65.0845C51.3976 64.621 50.9879 64.236 50.5064 63.9609C49.9965 63.6496 49.1933 63.3743 49.0038 62.7607C48.9585 62.4586 48.8286 62.1754 48.6293 61.944C48.3495 61.6642 47.9028 61.3167 47.8261 60.9106C47.7133 60.3466 48.1329 59.8187 48.0697 59.2456C48.0598 59.1056 48.0262 58.9683 47.9705 58.8395C47.8847 58.668 47.7133 58.5597 47.6456 58.3883C47.5147 58.0228 47.9524 57.6031 47.9615 57.2105C47.9338 56.9184 47.8446 56.6355 47.6997 56.3803C47.5667 56.1523 47.4636 55.9081 47.3929 55.6538C47.3966 55.4737 47.448 55.2977 47.5418 55.1439Z" fill="#6F4377"/>
<path opacity="0.2" d="M47.5418 55.1439C47.7712 54.6593 47.8543 54.1183 47.781 53.5872C47.7268 53.2126 47.3658 52.6847 47.5689 52.3192C47.6862 52.1071 47.9614 52.062 48.1329 51.8996C48.3829 51.6727 48.543 51.3637 48.5841 51.0287C48.5766 50.6387 48.542 50.2497 48.4804 49.8645C48.4804 49.3591 48.7962 49.129 49.0128 48.7274C49.2421 48.292 49.3947 47.8203 49.4641 47.3331C49.5678 46.5705 48.9903 46.0832 49.3873 45.3748C49.5108 45.1507 49.5862 44.9032 49.6084 44.6483C49.6445 44.3595 49.9108 44.1655 49.9514 43.8767C50.012 43.6743 50.0228 43.4602 49.9827 43.2528C49.9426 43.0453 49.8529 42.8507 49.7212 42.6854C48.7782 41.8552 47.6095 42.7757 46.8424 43.3307C45.6421 44.1926 44.0718 44.2648 42.8535 45.0725C42.3294 45.4196 41.7284 45.6333 41.1027 45.6952C40.9629 45.6952 39.7491 45.7944 39.7491 45.6952C39.6057 46.5385 39.5679 47.3964 39.6362 48.2491C39.7061 49.1139 40.1011 49.9201 40.7418 50.5053C40.8967 50.606 41.0141 50.7551 41.0757 50.9294L40.6741 51.0197C40.6638 51.2525 40.6306 51.4838 40.5748 51.7101C40.4951 52.0076 40.4792 52.3185 40.5282 52.6226C40.5772 52.9267 40.69 53.217 40.8591 53.4744C41.0369 53.6656 41.1641 53.8983 41.2291 54.1512C41.2093 54.4448 41.106 54.7266 40.9313 54.9634C40.7419 55.3356 40.6531 55.7509 40.6737 56.168C40.6943 56.5851 40.8235 56.9896 41.0486 57.3414C41.2483 57.5672 41.3934 57.8358 41.4728 58.1265C41.4594 58.4108 41.4124 58.6926 41.3329 58.9658C41.2832 59.4171 41.5314 59.6968 41.6352 60.0939C41.6509 60.2277 41.675 60.3603 41.7074 60.491C41.7886 60.6895 41.942 60.861 42.0323 61.0595C42.1563 61.3342 42.215 61.6338 42.2038 61.9349C42.1635 62.5826 42.2029 63.2327 42.3211 63.8707C42.4589 64.4561 42.8014 64.973 43.2867 65.3282C43.5146 65.5197 43.7592 65.6904 44.0177 65.8381C44.3832 66.0366 44.7622 66.2171 45.1322 66.4156C45.9584 66.9031 46.8304 67.3081 47.7358 67.6249C47.9118 67.6746 48.0968 67.7107 48.2728 67.7423C48.5997 67.8179 48.9376 67.8331 49.27 67.7874C49.5182 67.7332 49.6626 67.4896 49.8656 67.4806C50.2447 67.4806 50.5335 67.6114 50.9035 67.4129C51.0445 67.3267 51.1578 67.2017 51.2298 67.0529C51.3018 66.9041 51.3295 66.7377 51.3096 66.5736C51.8962 66.3886 51.9864 65.5403 51.7021 65.0845C51.3976 64.621 50.9879 64.236 50.5064 63.9609C49.9965 63.6496 49.1933 63.3743 49.0038 62.7607C48.9585 62.4586 48.8286 62.1754 48.6293 61.944C48.3495 61.6642 47.9028 61.3167 47.8261 60.9106C47.7133 60.3466 48.1329 59.8187 48.0697 59.2456C48.0598 59.1056 48.0262 58.9683 47.9705 58.8395C47.8847 58.668 47.7133 58.5597 47.6456 58.3883C47.5147 58.0228 47.9524 57.6031 47.9615 57.2105C47.9338 56.9184 47.8446 56.6355 47.6997 56.3803C47.5667 56.1523 47.4636 55.9081 47.3929 55.6538C47.3966 55.4737 47.448 55.2977 47.5418 55.1439Z" fill="black"/>
<path d="M26.8936 56.633C26.5423 56.4371 26.1737 56.274 25.7926 56.1456C24.845 55.7802 23.5139 55.6177 22.634 56.2269C21.7541 56.836 21.5239 58.1762 21.4111 59.1824C21.3615 59.6337 21.6052 59.9134 21.7089 60.3105C21.745 60.4414 21.736 60.5767 21.7857 60.7076C21.8624 60.9106 22.0203 61.0776 22.1105 61.2761C22.2332 61.5511 22.2904 61.8507 22.2775 62.1515C22.241 62.7993 22.2819 63.4492 22.3993 64.0873C22.5338 64.6742 22.8769 65.1922 23.365 65.5448C23.5962 65.7375 23.8438 65.9096 24.105 66.0592C24.475 66.2622 24.854 66.4382 25.224 66.6368C26.0497 67.125 26.9219 67.5301 27.8276 67.8461C28.0044 67.8947 28.1836 67.9338 28.3646 67.9634C28.6911 68.0414 29.0295 68.0567 29.3618 68.0085C29.6055 67.9589 29.7499 67.7107 29.9529 67.7017C30.332 67.7017 30.6253 67.8325 30.9908 67.634C31.133 67.549 31.2473 67.4243 31.3194 67.2751C31.3916 67.126 31.4185 66.9589 31.3969 66.7947C31.988 66.6097 32.0782 65.7614 31.7939 65.3056C31.4858 64.8452 31.0769 64.461 30.5982 64.1821C30.0883 63.8707 29.2851 63.5955 29.0911 62.9818C29.0457 62.6797 28.9159 62.3965 28.7166 62.1651C28.4413 61.8853 27.9946 61.5378 27.9134 61.1317C27.8051 60.5677 28.2202 60.0398 28.1615 59.4667C28.1164 59.038 27.796 58.8124 27.6832 58.4153C27.5975 58.113 27.6832 57.7926 27.593 57.4903C27.4746 57.1275 27.2252 56.8218 26.8936 56.633Z" fill="#6F4377"/>
<path opacity="0.2" d="M26.8936 56.633C26.5423 56.4371 26.1737 56.274 25.7926 56.1456C24.845 55.7802 23.5139 55.6177 22.634 56.2269C21.7541 56.836 21.5239 58.1762 21.4111 59.1824C21.3615 59.6337 21.6052 59.9134 21.7089 60.3105C21.745 60.4414 21.736 60.5767 21.7857 60.7076C21.8624 60.9106 22.0203 61.0776 22.1105 61.2761C22.2332 61.5511 22.2904 61.8507 22.2775 62.1515C22.241 62.7993 22.2819 63.4492 22.3993 64.0873C22.5338 64.6742 22.8769 65.1922 23.365 65.5448C23.5962 65.7375 23.8438 65.9096 24.105 66.0592C24.475 66.2622 24.854 66.4382 25.224 66.6368C26.0497 67.125 26.9219 67.5301 27.8276 67.8461C28.0044 67.8947 28.1836 67.9338 28.3646 67.9634C28.6911 68.0414 29.0295 68.0567 29.3618 68.0085C29.6055 67.9589 29.7499 67.7107 29.9529 67.7017C30.332 67.7017 30.6253 67.8325 30.9908 67.634C31.133 67.549 31.2473 67.4243 31.3194 67.2751C31.3916 67.126 31.4185 66.9589 31.3969 66.7947C31.988 66.6097 32.0782 65.7614 31.7939 65.3056C31.4858 64.8452 31.0769 64.461 30.5982 64.1821C30.0883 63.8707 29.2851 63.5955 29.0911 62.9818C29.0457 62.6797 28.9159 62.3965 28.7166 62.1651C28.4413 61.8853 27.9946 61.5378 27.9134 61.1317C27.8051 60.5677 28.2202 60.0398 28.1615 59.4667C28.1164 59.038 27.796 58.8124 27.6832 58.4153C27.5975 58.113 27.6832 57.7926 27.593 57.4903C27.4746 57.1275 27.2252 56.8218 26.8936 56.633Z" fill="black"/>
<path d="M26.0949 31.8153C25.6978 32.5057 25.3142 33.169 24.4298 33.2773C23.3153 33.3991 21.5465 33.1825 21.0682 34.4821C20.9238 34.8837 20.9734 35.3259 20.7162 35.7004C20.265 36.3186 19.6829 36.3547 19.0061 36.4314C17.7381 36.5758 15.9738 36.8826 15.6308 38.3085C15.3195 39.6081 14.4847 39.5313 13.3747 40.0728C12.667 40.3769 12.0465 40.8531 11.5698 41.4581C10.929 42.3606 11.3577 42.7531 11.2133 43.6917C11.105 44.4227 10.1033 45.0003 9.62497 45.5237C8.903 46.2998 8.11786 47.2564 7.89225 48.3258C7.78392 48.7199 7.80127 49.1379 7.94189 49.5216C8.10433 49.8735 8.49239 50.0631 8.65483 50.424C9.03386 51.2588 8.40665 51.9718 8.23067 52.7614C8.08177 53.4338 8.0953 54.3091 8.6819 54.7649C9.2685 55.2206 9.96791 55.1123 10.3289 55.8704C10.6493 56.5247 10.4417 57.3324 10.6583 58.0273C10.7671 58.3935 10.9588 58.7298 11.2186 59.01C11.4784 59.2901 11.7993 59.5066 12.1564 59.6427C12.6749 59.7762 13.1728 59.9796 13.6364 60.2473C14.2772 60.6986 14.3764 61.2806 14.7509 61.9394C14.9223 62.2703 15.1609 62.5617 15.4516 62.7948C15.7422 63.0279 16.0784 63.1977 16.4386 63.2931C17.3094 63.4781 18.2705 63.1758 19.1189 63.5368C20.3597 64.0557 20.9238 65.8922 22.5166 65.7478C23.1799 65.6892 23.7034 65.1296 24.4028 65.0845C25.1022 65.0394 25.7565 65.3462 26.4468 65.3101C27.5162 65.2515 27.5343 64.6062 28.0171 63.9023C28.4999 63.1984 29.2129 63.609 29.7408 63.1848C30.2688 62.7607 30.2642 61.1363 30.2327 60.5045C30.1751 60.142 30.1951 59.7713 30.2913 59.4171C30.4836 59.102 30.6352 58.7639 30.7425 58.4108C30.8418 57.558 30.2281 57.0571 30.0251 56.281C30.4763 56.1727 30.9817 56.3667 31.4555 56.1727C32.0466 55.9336 32.006 55.4959 32.358 55.1033C33.0167 54.3272 32.8092 55.2071 32.728 55.6899C32.6449 55.9846 32.6245 56.2935 32.668 56.5966C32.7115 56.8996 32.818 57.1903 32.9806 57.4497C33.0911 57.538 33.1814 57.6489 33.2457 57.7748C33.3101 57.9008 33.3469 58.0389 33.3537 58.1802C33.3605 58.3215 33.3372 58.4625 33.2854 58.5941C33.2335 58.7257 33.1542 58.8447 33.0528 58.9433C32.8635 59.3155 32.7747 59.7307 32.7952 60.1479C32.8158 60.565 32.9451 60.9695 33.1702 61.3213C33.3706 61.5465 33.5159 61.8153 33.5943 62.1064C33.5804 62.3906 33.5335 62.6723 33.4544 62.9457C33.4048 63.3969 33.6485 63.6722 33.7523 64.0693C33.7709 64.2029 33.7965 64.3354 33.829 64.4663C33.9057 64.6694 34.0636 64.8363 34.1538 65.0349C34.2778 65.3094 34.335 65.6094 34.3208 65.9103C34.2844 66.5596 34.3253 67.2109 34.4426 67.8505C34.5807 68.4346 34.9232 68.95 35.4083 69.3035C35.6394 69.4976 35.887 69.6713 36.1483 69.8224C36.5183 70.021 36.8973 70.2015 37.2673 70.3955C38.0916 70.8866 38.964 71.2918 39.8709 71.6048C40.0469 71.6544 40.2319 71.6905 40.4079 71.7221C40.7342 71.8014 41.0726 71.8182 41.4051 71.7717C41.6533 71.7176 41.7977 71.4694 42.0007 71.4649C42.3753 71.4649 42.6686 71.5913 43.0386 71.3972C43.1796 71.3101 43.2924 71.1841 43.3637 71.0345C43.4349 70.8848 43.4615 70.7178 43.4402 70.5534C44.0313 70.3684 44.1215 69.5201 43.8373 69.0644C43.5313 68.6033 43.1218 68.2201 42.6415 67.9453C42.1316 67.6295 41.3284 67.3587 41.1389 66.7405C41.0935 66.4398 40.9636 66.1581 40.7644 65.9283C40.4846 65.644 40.0379 65.2966 39.9612 64.8905C39.9347 64.6246 39.9751 64.3563 40.0785 64.1099C40.1485 63.8574 40.1485 63.5907 40.0785 63.3382C39.9973 63.0314 39.7987 62.7652 39.6995 62.4629C39.6071 62.1811 39.6248 61.8748 39.7491 61.6055C39.8463 61.328 39.881 61.0323 39.8506 60.7398C39.8202 60.4472 39.7254 60.165 39.5731 59.9134C39.4699 59.7817 39.4002 59.6268 39.3701 59.4622C39.3743 59.2843 39.4274 59.1111 39.5235 58.9613C39.8348 58.3152 39.877 57.5719 39.6408 56.8947C39.5461 56.633 39.4152 56.3397 39.5506 56.096C39.6363 55.9779 39.7435 55.8769 39.8664 55.7982C40.03 55.6604 40.1642 55.4911 40.2611 55.3004C40.3579 55.1097 40.4156 54.9015 40.4305 54.6882C40.4305 54.3994 40.1462 54.2099 40.1146 53.9301C40.0695 53.5556 40.2816 53.5014 40.4846 53.2623C40.7008 53.007 40.8857 52.7268 41.0351 52.4275C41.1919 52.3658 41.3429 52.2903 41.4863 52.2019C41.8945 51.9543 42.1978 51.5659 42.3392 51.1099C42.3982 50.7021 42.4239 50.2901 42.4159 49.8781C42.7826 50.0421 43.1878 50.1011 43.5861 50.0486C43.9845 49.996 44.3604 49.8339 44.672 49.5802C45.2854 49.0628 45.6962 48.3452 45.8317 47.5542C46.2542 47.5994 46.6806 47.5185 47.0572 47.3218C47.4338 47.1251 47.7437 46.8213 47.948 46.4487C48.34 45.6917 48.5075 44.8385 48.4308 43.9895C48.9934 44.0789 49.5693 43.9602 50.0507 43.6556C50.257 43.4431 50.4122 43.1863 50.5045 42.9049C50.5967 42.6234 50.6236 42.3246 50.5831 42.0312C50.5468 41.3441 50.3799 40.6703 50.0913 40.0458C50.4222 40.2317 50.7823 40.3599 51.1562 40.4248C51.3436 40.4542 51.5354 40.4357 51.7137 40.371C51.892 40.3063 52.0511 40.1975 52.176 40.0548C52.2897 39.8432 52.3493 39.6068 52.3493 39.3666C52.3493 39.1265 52.2897 38.8901 52.176 38.6785C52.0247 38.2751 51.8247 37.8918 51.5804 37.5369C51.5082 37.4331 50.9486 36.6796 50.8449 36.6976C51.1106 36.6621 51.3626 36.5579 51.5758 36.3953C51.7918 36.2324 51.9345 35.9907 51.9729 35.723C51.9685 35.309 51.822 34.9091 51.5578 34.5904C51.0801 33.9263 50.474 33.3647 49.7754 32.9389C49.419 32.7087 48.8459 32.5508 48.5887 32.2259C48.3752 31.8507 48.197 31.4564 48.0563 31.0482C47.1988 29.192 45.9119 27.5664 44.302 26.3058C43.4897 25.709 42.5882 25.2446 41.6307 24.9295C41.1144 24.7631 40.5866 24.6349 40.0514 24.546C39.6394 24.4856 39.2353 24.3796 38.8466 24.2301C38.4217 24.1098 37.9735 24.0973 37.5426 24.194C37.2038 24.2368 36.8795 24.3572 36.595 24.546C35.8821 25.0288 35.8369 25.841 34.9615 26.2832C34.5103 26.5179 34.4562 26.9465 33.8605 27.118C33.2649 27.2895 32.6693 27.2263 32.1278 27.4655C31.0765 27.9167 31.3382 28.9545 30.5891 29.6314C29.7228 30.4165 28.2111 29.8931 27.2004 30.4842C26.7207 30.8224 26.3393 31.2817 26.0949 31.8153Z" fill="#6F4377"/>
<path opacity="0.2" d="M49.9469 32.3613L45.2 32.8125L40.0199 31.522L35.9588 27.7542C36.0851 29.9788 38.039 34.3106 42.4836 35.4252C44.5667 35.9695 46.7783 35.7102 48.679 34.6987C49.0834 34.4884 49.4329 34.1861 49.6994 33.8162C49.9658 33.4463 50.1418 33.0191 50.2132 32.5689V32.5418C50.2222 32.4922 49.9379 32.429 49.9469 32.3613Z" fill="black"/>
<path d="M55.1044 28.2912C56.2506 28.7424 57.6945 29.9517 58.7143 30.9986C59.7341 32.0454 61.6879 31.9552 61.557 30.3533C61.4262 28.7515 59.5129 27.5016 59.5129 27.5016C58.087 27.9674 56.6034 28.2331 55.1044 28.2912Z" fill="#FFA8A7"/>
<path d="M60.1944 30.3894C60.2481 30.4002 60.3038 30.3922 60.3523 30.3669C60.4143 30.3367 60.4618 30.2832 60.4846 30.2182C60.5075 30.1531 60.5037 30.0817 60.4741 30.0194C59.9548 29.1723 59.1786 28.5131 58.2586 28.1378C58.033 28.219 57.7758 28.3047 57.4825 28.395C58.5745 28.765 59.6394 29.5185 60.0004 30.2495C60.0195 30.2864 60.0471 30.3182 60.0808 30.3425C60.1145 30.3668 60.1534 30.3829 60.1944 30.3894Z" fill="#F28F8F"/>
<path d="M50.4162 17.2135C50.7321 17.5294 51.0524 17.8452 51.3773 18.1521C52.1276 18.887 52.9657 19.5265 53.8726 20.0563C54.4804 20.4157 55.1745 20.6028 55.8806 20.5977C56.1814 20.6079 56.4793 20.5362 56.7425 20.3902C56.9229 20.2232 56.8327 20.0517 56.8598 19.8532C57.8886 19.6456 57.311 18.7116 56.9274 18.1521C58.1593 18.116 57.0493 16.9834 56.6973 16.5728C55.7046 15.3996 55.3436 13.6939 54.1434 12.7012C53.5793 12.25 52.9025 12.1056 51.7834 11.9476C50.6563 11.7932 49.5163 11.7539 48.3812 11.8303C47.7539 11.8664 46.3326 12.0514 46.2062 12.796C46.134 13.2156 46.8921 13.5901 47.2937 14.0368C47.6953 14.4836 48.1961 15.0295 48.6699 15.4763C49.2611 16.0448 49.8341 16.6359 50.4162 17.2135Z" fill="#37474F"/>
<path d="M37.4975 24.0722C37.6915 24.8664 39.3656 27.3165 39.0046 28.0611C38.7699 28.5123 38.2014 28.8011 38.3683 29.3335C38.5894 30.06 39.546 30.8452 40.1733 31.2513C41.0604 31.8273 42.0382 32.2499 43.0656 32.5012C44.469 32.8577 45.931 32.6681 47.3614 32.5689C47.9166 32.5459 48.4586 32.3921 48.9432 32.12C49.4278 31.848 49.8413 31.4652 50.15 31.0031C50.4019 30.9846 50.6447 30.9014 50.855 30.7614C51.0653 30.6215 51.2359 30.4296 51.3502 30.2044C51.8407 30.756 52.5201 31.1038 53.2544 31.1791C53.5946 31.204 53.9359 31.15 54.2516 31.0212C54.3825 30.9625 55.0639 30.4616 54.9375 30.2676C55.1361 30.5835 55.3887 30.9264 55.7452 30.9851C55.9553 31.0025 56.1658 30.9569 56.3499 30.8542C56.6807 30.6874 56.9723 30.4523 57.2057 30.1645C57.439 29.8767 57.6087 29.5428 57.7035 29.1846C57.7859 29.3423 57.9235 29.464 58.09 29.5265C58.2566 29.589 58.4403 29.5877 58.606 29.5231C58.9404 29.3764 59.2088 29.1112 59.3596 28.7785C59.551 28.4599 59.6348 28.0881 59.5987 27.7181C59.6991 27.8278 59.834 27.8997 59.981 27.9218C60.128 27.944 60.2782 27.9151 60.4064 27.84C60.5286 27.7586 60.632 27.6521 60.7098 27.5276C60.7877 27.4031 60.838 27.2635 60.8577 27.118C60.8959 26.8171 60.8822 26.5118 60.817 26.2155C60.866 26.2619 60.9293 26.2903 60.9965 26.2961C61.0637 26.3018 61.1309 26.2846 61.187 26.2471C61.2991 26.1706 61.3856 26.0621 61.4352 25.9358C61.6655 25.3581 61.6768 24.7162 61.4668 24.1309C61.2728 23.5488 61.1961 22.7772 60.7358 22.3756C60.2471 21.8997 59.6604 21.5362 59.0166 21.3107C58.2354 21.0185 57.5126 20.5891 56.8823 20.0427C56.3318 19.5599 55.5963 19.0816 55.5512 18.2649C55.561 17.9171 55.5505 17.5691 55.5196 17.2225C55.4342 16.736 55.1622 16.3021 54.7615 16.0132C54.3419 15.6568 53.9674 15.377 53.5658 14.998C53.1138 14.5915 52.6408 14.209 52.1489 13.8518C49.4099 11.722 44.9292 12.2816 41.6082 13.8518C36.7981 16.117 36.3965 19.5599 37.4975 24.0722Z" fill="#6F4377"/>
<path d="M50.4433 23.2464C51.0015 23.2464 51.4541 22.7939 51.4541 22.2357C51.4541 21.6775 51.0015 21.2249 50.4433 21.2249C49.8851 21.2249 49.4326 21.6775 49.4326 22.2357C49.4326 22.7939 49.8851 23.2464 50.4433 23.2464Z" fill="#263238"/>
<path opacity="0.2" d="M45.2225 29.9833C45.5274 31.0438 46.1929 31.9646 47.1042 32.5869H47.3523C47.9076 32.564 48.4496 32.4102 48.9342 32.1381C49.4188 31.866 49.8323 31.4833 50.1409 31.0211C50.3929 31.0027 50.6357 30.9194 50.846 30.7795C51.0563 30.6396 51.2269 30.4477 51.3412 30.2225C48.2819 31.6303 45.2225 29.9833 45.2225 29.9833Z" fill="black"/>
<path d="M50.141 31.0031C47.8848 32.7042 44.117 32.3252 41.7075 30.8542C39.7401 29.6539 38.5804 27.4248 38.6662 24.537C38.6662 24.537 36.6808 25.1958 36.4461 26.6938C36.3333 28.2732 37.132 31.0211 39.7446 32.7809C42.0639 34.3422 47.4155 35.7952 50.0597 33.1916C50.3058 32.8836 50.4465 32.5047 50.4611 32.1107C50.4757 31.7168 50.3635 31.3285 50.141 31.0031Z" fill="#455A64"/>
<path d="M43.7064 15.571C43.914 15.4041 43.4041 14.7498 42.6776 14.5693C41.3871 14.2444 39.5551 14.9122 38.4857 15.6297C37.4162 16.3471 36.2295 17.227 35.6745 18.4544C34.9373 20.0202 34.4181 21.6796 34.1313 23.3863C33.9959 24.2211 33.7207 25.4439 34.226 26.2201C34.3675 26.4395 34.584 26.5999 34.8352 26.6713C34.914 26.6885 34.9958 26.6873 35.074 26.6678C35.1523 26.6482 35.225 26.6108 35.2864 26.5585C35.2864 26.5585 35.1736 27.1541 35.1511 27.2895C35.1202 27.541 35.1051 27.7942 35.1059 28.0475C35.0817 28.3249 35.1198 28.6042 35.2174 28.8649C35.315 29.1257 35.4696 29.3613 35.67 29.5547C36.2972 30.1097 37.0237 29.866 37.6689 29.4915C38.4315 30.5293 40.1913 29.5862 40.3131 28.4762C41.1479 28.8823 41.9692 28.025 41.9872 27.1225C42.9573 27.5106 43.0566 26.4096 42.7633 24.7626C42.6911 24.3474 42.6325 23.9143 42.5512 23.5172C42.1842 21.8896 42.0852 20.2131 42.2579 18.5537C42.3753 17.5655 42.8761 16.2343 43.7064 15.571Z" fill="#37474F"/>
<path d="M60.2621 25.1867C59.6709 25.5703 58.1277 25.2905 57.505 24.7851C57.3617 24.664 57.2441 24.5154 57.1592 24.348C57.0743 24.1806 57.0238 23.9979 57.0108 23.8107C56.9977 23.6235 57.0224 23.4356 57.0832 23.258C57.1441 23.0805 57.24 22.917 57.3651 22.7772C57.875 22.2718 58.9715 21.5588 59.6213 21.5047C59.9392 21.5189 60.2459 21.6267 60.5028 21.8145C60.7596 22.0024 60.9553 22.2619 61.0652 22.5606C61.1916 23.3728 61.0562 24.6588 60.2621 25.1867Z" fill="#263238"/>
<path opacity="0.2" d="M31.7488 55.9877C31.7488 55.8659 31.7217 55.7531 31.7081 55.6809C31.5996 55.2377 31.542 54.7835 31.5367 54.3272C31.5736 54.0968 31.5626 53.8613 31.5044 53.6354C31.4461 53.4094 31.3419 53.1979 31.1983 53.0141C30.9126 52.6508 30.6576 52.2644 30.4357 51.859C30.0927 51.2859 29.5332 51.1957 28.9331 51.0197C28.4019 50.8122 27.8987 50.5393 27.435 50.2075C26.7565 49.8688 25.9825 49.7733 25.242 49.9367C24.6419 50.0495 24.3396 50.4782 23.7936 50.6722C23.2476 50.8663 21.4472 51.2002 21.6412 52.062C21.93 51.9266 22.0924 51.6108 22.4218 51.4393C22.8899 51.2651 23.3944 51.2123 23.8883 51.2859C24.7186 51.2859 25.3639 50.7895 26.2167 50.9746C26.7661 51.0858 27.273 51.3502 27.6787 51.7371C28.0712 52.1432 28.0126 52.4817 28.1299 52.978C28.2472 53.4744 28.5811 53.4292 28.9556 53.6413C29.3342 53.8669 29.6457 54.1893 29.8581 54.5754C30.0572 54.9409 30.1465 55.3561 30.1153 55.7711C30.0717 55.9404 30.0385 56.1122 30.016 56.2855C30.4673 56.1817 30.9726 56.3758 31.4464 56.1817C31.5573 56.1344 31.6595 56.0688 31.7488 55.9877Z" fill="black"/>
<path d="M48.4849 36.8962C47.7643 37.077 47.0193 37.1409 46.2784 37.0857C41.9692 36.8104 36.9244 33.4758 34.9977 29.5862C34.6572 28.9285 34.4256 28.2199 34.3118 27.488L32.1639 16.2073C32.4417 17.2729 32.832 18.306 33.3281 19.2892C37.2583 27.2173 47.6005 34.0895 56.4266 34.631C57.7134 34.7279 59.0073 34.6566 60.2756 34.4189L48.4849 36.8962Z" fill="#6F4377"/>
<path opacity="0.5" d="M48.4849 36.8962C47.7643 37.077 47.0193 37.1409 46.2784 37.0857C41.9692 36.8104 36.9244 33.4758 34.9977 29.5862C34.6572 28.9285 34.4256 28.2199 34.3118 27.488L32.1639 16.2073C32.4417 17.2729 32.832 18.306 33.3281 19.2892C37.2583 27.2173 47.6005 34.0895 56.4266 34.631C57.7134 34.7279 59.0073 34.6566 60.2756 34.4189L48.4849 36.8962Z" fill="white"/>
</svg>
