<svg width="194" height="155" viewBox="0 0 194 155" fill="none" xmlns="http://www.w3.org/2000/svg">
<path d="M127.8 184.573C138 181.353 181.67 179.813 176.28 147.573L136.92 144.873C136.92 144.873 82.42 164.873 76.39 189.793C68.66 221.733 145.52 204.953 145.52 204.953C149.39 204.053 152.21 199.023 151.68 193.253C151.68 193.233 148.05 184.383 127.8 184.573Z" fill="#E52D52"/>
<path opacity="0.2" d="M127.8 184.573C138 181.353 181.67 179.813 176.28 147.573L136.92 144.873C136.92 144.873 82.42 164.873 76.39 189.793C68.66 221.733 145.52 204.953 145.52 204.953C149.39 204.053 152.21 199.023 151.68 193.253C151.68 193.233 148.05 184.383 127.8 184.573Z" fill="black"/>
<path d="M172.95 186.293C183.01 182.693 206.22 176.053 193.43 143.063L151.5 147.383C151.5 147.383 114.7 168.043 109.62 193.193C103.12 225.413 188.2 206.043 188.2 206.043C192.03 204.993 194.66 199.863 193.91 194.113C193.91 194.113 193.17 185.333 172.95 186.293Z" fill="#E52D52"/>
<path d="M139.96 81.8133C138.424 85.1898 136.497 88.3748 134.22 91.3033C132.124 94.0182 129.845 96.5875 127.4 98.9933C125.08 101.333 122.73 103.473 120.49 105.523C118.25 107.573 116.13 109.523 114.31 111.413L113.65 112.103C112.906 112.88 111.982 113.46 110.96 113.793C107.2 114.978 103.291 115.628 99.35 115.723C95.8083 115.839 92.2629 115.705 88.74 115.323C85.3 114.943 81.93 114.403 78.61 113.703C75.2743 113.008 71.9793 112.13 68.74 111.073C67.733 110.731 66.8793 110.044 66.3296 109.134C65.7799 108.224 65.5696 107.148 65.7359 106.098C65.9022 105.047 66.4344 104.089 67.2384 103.393C68.0424 102.697 69.0666 102.308 70.13 102.293H70.33C73.39 102.293 76.62 102.293 79.74 102.213C82.86 102.133 85.98 102.023 89.02 101.773C91.9735 101.578 94.9144 101.224 97.83 100.713C100.357 100.309 102.825 99.5966 105.18 98.5933L101.84 100.973C103.99 98.1533 106.19 95.6833 108.33 93.3633C110.47 91.0433 112.53 88.8533 114.46 86.7133C116.39 84.5733 118.16 82.4633 119.71 80.3633C121.203 78.3828 122.54 76.2899 123.71 74.1033L123.79 73.9633C124.831 71.8151 126.683 70.1683 128.938 69.3854C131.193 68.6024 133.667 68.7473 135.815 69.7883C137.963 70.8293 139.61 72.681 140.393 74.9361C141.176 77.1913 141.031 79.6651 139.99 81.8133H139.96Z" fill="#FFB573"/>
<path d="M141.83 72.3135C139.5 65.0135 132.19 55.1335 115.05 82.1735C119.05 92.0935 134.79 101.803 134.79 101.803C134.79 101.803 147.37 89.6635 141.83 72.3135Z" fill="#263238"/>
<path d="M74.78 105.293L68.28 97.2935L61.22 107.473C61.22 107.473 67.99 114.023 72.05 110.993L74.78 105.293Z" fill="#FFB573"/>
<path d="M57.5801 96.0633L55.7101 100.063C55.3517 100.831 55.2766 101.701 55.498 102.52C55.7195 103.338 56.2232 104.051 56.9201 104.533L61.1801 107.463L68.2401 97.2833L62.4101 94.3933C61.9841 94.1813 61.5202 94.0562 61.0453 94.0255C60.5705 93.9948 60.0943 94.0591 59.6446 94.2146C59.1949 94.3701 58.7807 94.6137 58.4262 94.9311C58.0717 95.2485 57.7841 95.6334 57.5801 96.0633Z" fill="#FFB573"/>
<path d="M134.02 63.6533C148.36 60.1733 154.53 59.7633 165.02 59.4733C167.968 59.3779 170.905 59.883 173.652 60.9577C176.399 62.0325 178.899 63.6545 180.999 65.7253C183.1 67.796 184.758 70.2723 185.872 73.0035C186.986 75.7348 187.533 78.6641 187.48 81.6133C187.16 115.533 192.88 135.233 193.48 143.063C171.08 157.723 138.58 157.563 132.58 151.553C120.03 125.903 121.24 94.6033 121.23 81.4633C121.23 74.3533 126.58 65.4533 134.02 63.6533Z" fill="#263238"/>
<path d="M157.36 40.1333C157.13 51.6033 160.03 54.8133 162.36 61.7033C161.36 66.1833 150.01 71.6433 140.76 74.0533C134.93 71.0533 134.67 66.0533 136.35 64.8233C142.23 61.2133 144.01 60.5933 141.35 54.3533L157.36 40.1333Z" fill="#FFB573"/>
<path opacity="0.2" d="M150.66 47.7234L146.92 49.4234L141.34 54.3734C141.768 55.3222 142.103 56.3102 142.34 57.3234C145.43 56.6634 148.73 54.7134 149.68 52.1634C150.279 50.7567 150.611 49.2513 150.66 47.7234Z" fill="black"/>
<path d="M128.52 15.5034C119.91 18.8934 121.24 29.4534 128.85 37.5034C135.45 27.3134 128.52 15.5034 128.52 15.5034Z" fill="#263238"/>
<path d="M158.15 25.4133C158.47 36.7933 159.23 43.4133 154.02 49.7133C146.19 59.1533 131.71 55.1033 128.02 44.0133C124.67 34.0133 124.71 17.1033 135.41 11.6933C137.78 10.5037 140.413 9.93378 143.063 10.0367C145.712 10.1397 148.293 10.9122 150.564 12.2821C152.834 13.6521 154.721 15.5748 156.047 17.871C157.374 20.1672 158.097 22.762 158.15 25.4133Z" fill="#FFB573"/>
<path d="M157.75 38.3433C151.64 38.9233 149.39 28.8833 150.66 25.2733C151.93 21.6633 153.04 18.2033 147.74 19.8033C142.44 21.4033 132.27 27.0633 126.88 23.7233C121.21 20.2033 117.59 9.96334 124.88 5.72334C132.17 1.48334 136.73 6.08334 136.73 6.08334C136.73 6.08334 143.73 -2.81666 156.57 0.913338C164.36 3.18334 161.35 8.75333 161.35 8.75333C161.35 8.75333 171.28 11.4833 167.84 22.1733C164.89 31.2833 160.42 31.4133 157.75 38.3433Z" fill="#263238"/>
<path d="M163.67 35.7833C163.366 37.1651 162.792 38.473 161.98 39.6316C161.168 40.7901 160.135 41.7764 158.94 42.5333C155.71 44.5333 153.01 41.9133 153 38.3233C153 35.1033 154.64 30.1633 158.31 29.6133C161.98 29.0633 164.39 32.3633 163.67 35.7833Z" fill="#FFB573"/>
<path d="M142.17 33.8833C142.32 34.7933 141.96 35.6133 141.36 35.7033C140.76 35.7933 140.15 35.1333 140 34.2233C139.85 33.3133 140.22 32.4933 140.81 32.3933C141.4 32.2933 142.02 32.9733 142.17 33.8833Z" fill="#263238"/>
<path d="M130.23 35.2934C130.38 36.2134 130.02 37.0234 129.42 37.1234C128.82 37.2234 128.21 36.5534 128.06 35.6334C127.91 34.7134 128.27 33.9034 128.87 33.8134C129.47 33.7234 130.08 34.3834 130.23 35.2934Z" fill="#263238"/>
<path d="M134.01 33.7935C134.01 33.7935 132.8 39.3935 130.93 42.2935C132.8 43.5435 135.44 42.4335 135.44 42.4335L134.01 33.7935Z" fill="#ED893E"/>
<path d="M139.82 44.7735C140.821 44.4983 141.753 44.0185 142.559 43.3644C143.364 42.7103 144.025 41.8962 144.5 40.9735C144.529 40.9072 144.531 40.832 144.505 40.7645C144.478 40.697 144.426 40.6426 144.36 40.6135C144.294 40.5843 144.219 40.5826 144.151 40.6089C144.084 40.6352 144.029 40.6872 144 40.7535C143.452 41.764 142.672 42.6305 141.725 43.2823C140.778 43.934 139.69 44.3525 138.55 44.5035C138.515 44.5082 138.481 44.5202 138.45 44.5386C138.42 44.5571 138.393 44.5816 138.373 44.6107C138.352 44.6397 138.338 44.6727 138.33 44.7076C138.323 44.7425 138.323 44.7785 138.33 44.8135C138.335 44.8491 138.347 44.8834 138.365 44.9143C138.383 44.9453 138.408 44.9722 138.437 44.9937C138.466 45.0151 138.498 45.0305 138.533 45.0391C138.568 45.0476 138.605 45.0491 138.64 45.0435C139.039 44.978 139.433 44.8878 139.82 44.7735Z" fill="#263238"/>
<path d="M144.52 28.7833C144.61 28.7568 144.693 28.7087 144.76 28.6433C144.811 28.593 144.852 28.5331 144.879 28.467C144.907 28.4009 144.921 28.33 144.921 28.2583C144.921 28.1866 144.907 28.1157 144.879 28.0496C144.852 27.9835 144.811 27.9235 144.76 27.8733C144.149 27.2564 143.398 26.7954 142.572 26.5291C141.745 26.2628 140.866 26.1991 140.01 26.3433C139.94 26.3585 139.875 26.3876 139.817 26.4288C139.758 26.4701 139.709 26.5226 139.672 26.5833C139.635 26.6439 139.61 26.7115 139.599 26.782C139.589 26.8524 139.592 26.9243 139.61 26.9933C139.643 27.133 139.73 27.254 139.852 27.3306C139.973 27.4073 140.12 27.4333 140.26 27.4033C140.939 27.2999 141.634 27.3593 142.286 27.5766C142.938 27.7939 143.529 28.1629 144.01 28.6533C144.077 28.7159 144.159 28.7605 144.248 28.7833C144.338 28.806 144.431 28.806 144.52 28.7833Z" fill="#263238"/>
<path d="M125.47 30.6234C125.559 30.6144 125.644 30.583 125.717 30.5323C125.791 30.4816 125.85 30.4132 125.89 30.3334C126.191 29.7227 126.632 29.1921 127.178 28.7853C127.724 28.3784 128.359 28.1071 129.03 27.9935C129.101 27.9872 129.17 27.9669 129.233 27.9338C129.296 27.9007 129.352 27.8554 129.398 27.8006C129.443 27.7457 129.478 27.6824 129.499 27.6142C129.52 27.5461 129.527 27.4744 129.52 27.4034C129.505 27.2591 129.433 27.1267 129.321 27.0349C129.208 26.9431 129.064 26.8995 128.92 26.9135C128.068 27.0408 127.26 27.3718 126.563 27.8784C125.867 28.385 125.303 29.0523 124.92 29.8235C124.853 29.9522 124.839 30.1022 124.882 30.2408C124.926 30.3794 125.022 30.4954 125.15 30.5634C125.248 30.6147 125.36 30.6356 125.47 30.6234Z" fill="#263238"/>
<path d="M183.29 73.0634C183.795 75.6414 184.013 78.2675 183.94 80.8935C183.873 83.2391 183.649 85.5777 183.27 87.8935C182.546 92.2615 181.442 96.5578 179.97 100.733C178.559 104.828 176.854 108.815 174.87 112.663C173.87 114.603 172.81 116.533 171.58 118.443C170.295 120.477 168.864 122.416 167.3 124.243L167 124.583C166.777 124.837 166.532 125.071 166.27 125.283C163.884 127.146 161.146 128.507 158.22 129.283C155.853 129.911 153.432 130.313 150.99 130.483C146.633 130.759 142.259 130.611 137.93 130.043C129.747 128.989 121.7 127.058 113.93 124.283C112.905 123.915 112.049 123.187 111.521 122.234C110.993 121.281 110.83 120.169 111.061 119.105C111.292 118.041 111.902 117.097 112.778 116.449C113.653 115.801 114.734 115.493 115.82 115.583H115.98C119.7 115.883 123.6 116.183 127.38 116.343C131.16 116.503 134.95 116.603 138.63 116.493C142.148 116.445 145.656 116.11 149.12 115.493C150.586 115.23 152.023 114.825 153.41 114.283C154.282 113.977 155.08 113.49 155.75 112.853L154.75 113.853C155.625 112.571 156.42 111.235 157.13 109.853C157.89 108.353 158.67 106.783 159.36 105.163C160.763 101.902 161.978 98.5635 163 95.1634C164.016 91.8503 164.791 88.4682 165.32 85.0434C165.822 82.1779 165.919 79.2561 165.61 76.3635V76.0634C165.406 74.8986 165.434 73.7051 165.692 72.551C165.95 71.397 166.432 70.305 167.112 69.3374C167.792 68.3698 168.655 67.5456 169.653 66.9118C170.652 66.278 171.765 65.847 172.93 65.6435C174.095 65.4399 175.288 65.4678 176.442 65.7255C177.596 65.9832 178.688 66.4657 179.656 67.1454C180.623 67.8251 181.448 68.6888 182.082 69.687C182.715 70.6853 183.146 71.7986 183.35 72.9634L183.29 73.0634Z" fill="#FFB573"/>
<path d="M93.64 123.433C93.64 123.433 102.84 170.233 94.9 204.433C100.15 204.433 100.9 209.953 97.76 213.073H33.65C32.4984 213.073 31.3588 212.84 30.3 212.387C29.2412 211.934 28.2852 211.271 27.4898 210.438C26.6944 209.605 26.0761 208.62 25.6722 207.541C25.2684 206.463 25.0873 205.314 25.14 204.163C25.72 191.093 31.07 172.933 46.37 165.853C50.24 153.983 59.2 129.913 55.24 116.033C51.28 102.153 69.48 89.0033 83.58 98.7233C92.78 95.4633 109.17 83.0333 113.87 97.1033C118.57 111.173 93.64 123.433 93.64 123.433Z" fill="#263238"/>
<path d="M101.46 118.723C108.33 116.303 119.61 115.283 112.92 104.893C101.31 105.803 101.46 118.723 101.46 118.723Z" fill="#263238"/>
<path d="M106.72 91.1532C102.19 90.5632 98.5501 93.9832 102.55 95.8232C106.55 97.6632 103.17 93.8832 105.19 95.2132C107.21 96.5432 109.48 97.0732 109.92 95.8232C110.36 94.5732 109.5 94.2432 109.03 93.4832C108.56 92.7232 111.27 94.1132 110.71 93.2232C109.686 92.0576 108.262 91.3189 106.72 91.1532Z" fill="white"/>
<path d="M108.07 103.493C112.75 106.993 111.07 111.763 115.61 110.493C117.8 109.863 118.26 103.593 114.34 100.493C112.98 101.393 111.29 99.1733 111.29 99.1733C111.29 99.1733 110.48 102.493 108.07 103.493Z" fill="#ED847E"/>
<path d="M102.58 105.343C102.07 105.343 101.74 105.343 101.69 105.343C101.631 105.337 101.573 105.319 101.521 105.291C101.469 105.262 101.423 105.223 101.385 105.177C101.348 105.13 101.321 105.077 101.304 105.02C101.288 104.963 101.283 104.903 101.29 104.843C101.305 104.727 101.364 104.62 101.455 104.546C101.546 104.471 101.663 104.435 101.78 104.443C101.84 104.443 107.53 104.993 110.16 100.913C110.355 100.636 110.491 100.322 110.558 99.9895C110.625 99.6572 110.623 99.3146 110.55 98.9834C110.106 97.8192 109.281 96.8395 108.21 96.2034C108.109 96.143 108.035 96.0452 108.005 95.9311C107.975 95.817 107.991 95.6958 108.05 95.5934C108.08 95.5419 108.12 95.4969 108.167 95.4609C108.215 95.425 108.269 95.3988 108.327 95.3839C108.384 95.369 108.444 95.3657 108.503 95.3742C108.562 95.3827 108.619 95.4028 108.67 95.4334C109.953 96.1866 110.927 97.3699 111.42 98.7734C111.523 99.2225 111.532 99.6882 111.446 100.141C111.36 100.594 111.181 101.023 110.92 101.403C108.63 104.923 104.43 105.343 102.58 105.343Z" fill="white"/>
<path d="M113.58 101.163C112.08 101.163 110.69 99.1634 110.58 98.9334C110.538 98.8853 110.507 98.8289 110.488 98.7679C110.47 98.7068 110.464 98.6425 110.472 98.5793C110.481 98.516 110.502 98.4552 110.536 98.4009C110.569 98.3466 110.614 98.3001 110.667 98.2644C110.72 98.2287 110.78 98.2046 110.842 98.1938C110.905 98.183 110.97 98.1856 111.031 98.2016C111.093 98.2176 111.151 98.2465 111.201 98.2865C111.25 98.3264 111.291 98.3765 111.32 98.4334C111.65 98.9034 112.76 100.253 113.61 100.253C113.72 100.253 114.08 100.253 114.45 99.5834C114.51 99.4799 114.608 99.4044 114.723 99.3735C114.839 99.3426 114.961 99.3587 115.065 99.4184C115.168 99.4781 115.244 99.5764 115.275 99.6917C115.306 99.807 115.29 99.93 115.23 100.033C115.091 100.347 114.87 100.616 114.59 100.814C114.31 101.011 113.982 101.128 113.64 101.153L113.58 101.163Z" fill="white"/>
<path d="M77.01 98.9033C73.16 95.4833 66.2 99.2833 67.01 104.523C67.82 109.763 83.85 104.973 77.01 98.9033Z" fill="white"/>
<path d="M75.79 99.5133C75.02 98.3433 73.13 99.3633 73.07 101.033C73.01 102.703 77.16 101.583 75.79 99.5133Z" fill="#263238"/>
<path d="M79.5199 97.6634C79.2099 99.0234 81.2499 99.6634 82.5199 98.5934C83.7899 97.5234 80.0799 95.2434 79.5199 97.6634Z" fill="#263238"/>
<path d="M61.3499 104.323C60.2399 94.8933 44.1399 114.093 45.2399 126.203C46.3399 138.313 56.9499 137.023 59.9499 136.113C62.9499 135.203 62.3599 112.723 61.3499 104.323Z" fill="#263238"/>
<path opacity="0.8" d="M61.3499 104.323C60.2399 94.8933 44.1399 114.093 45.2399 126.203C46.3399 138.313 56.9499 137.023 59.9499 136.113C62.9499 135.203 62.3599 112.723 61.3499 104.323Z" fill="white"/>
<path d="M90.7099 213.093H74.9699C73.4899 209.383 65.6299 189.153 66.5799 180.363C65.6528 181.188 64.9275 182.214 64.4599 183.363C64.222 182.241 64.2813 181.075 64.6321 179.983C64.9829 178.89 65.6129 177.908 66.4599 177.133C65.6999 176.663 64.1099 177.483 64.1099 177.483C64.2672 176.77 64.5671 176.096 64.9915 175.501C65.416 174.906 65.9563 174.404 66.5799 174.023C66.1685 173.591 65.8307 173.095 65.5799 172.553C60.8999 163.693 63.9099 152.813 72.0699 146.983C77.0199 143.433 82.7799 143.573 84.0699 154.273C85.3599 164.973 79.6799 194.703 85.3499 208.043C89.0399 207.503 90.3499 211.553 90.7099 213.093Z" fill="white"/>
<path opacity="0.2" d="M78.9 126.623C74.55 126.623 70.22 125.323 68.32 122.913C68.2473 122.819 68.2149 122.7 68.2299 122.582C68.2449 122.464 68.3061 122.356 68.4 122.283C68.494 122.212 68.6117 122.179 68.729 122.193C68.8462 122.206 68.954 122.263 69.03 122.353C72.03 126.193 82.26 126.913 87.23 123.633C87.2792 123.601 87.3345 123.578 87.3925 123.566C87.4506 123.555 87.5104 123.555 87.5684 123.566C87.6264 123.578 87.6816 123.601 87.7308 123.634C87.78 123.667 87.8222 123.709 87.855 123.758C87.8878 123.808 87.9106 123.863 87.9221 123.921C87.9336 123.979 87.9336 124.039 87.922 124.097C87.9103 124.155 87.8874 124.21 87.8545 124.259C87.8215 124.308 87.7792 124.351 87.73 124.383C85.0554 125.944 81.9953 126.721 78.9 126.623Z" fill="white"/>
<path d="M118.49 115.843L108.58 112.923V125.303C108.58 125.303 117.87 126.863 119.5 122.063L118.49 115.843Z" fill="#FFB573"/>
<path d="M99.12 117.973L99.84 122.313C99.9756 123.151 100.405 123.914 101.052 124.464C101.699 125.013 102.521 125.315 103.37 125.313H108.58V112.933L102.14 113.853C101.67 113.923 101.218 114.085 100.811 114.33C100.404 114.576 100.05 114.899 99.7692 115.282C99.4883 115.666 99.2863 116.101 99.1749 116.563C99.0634 117.025 99.0448 117.504 99.12 117.973Z" fill="#FFB573"/>
<path d="M179.7 65.6534C173.52 61.1334 162.34 64.7734 160.35 90.5634C169.69 95.7634 185.84 90.5634 185.84 90.5634C185.84 90.5634 190.68 73.6534 179.7 65.6534Z" fill="#263238"/>
</svg>
