<svg width="26" height="24" viewBox="0 0 26 24" fill="none" xmlns="http://www.w3.org/2000/svg">
<path d="M20.4371 5.82109L17.2538 1.20985C17.0179 0.868791 16.7043 0.589031 16.339 0.393747C15.9738 0.198464 15.5674 0.0932791 15.1535 0.0869102L9.11246 0H9.1C5.98114 0 3.58816 0.523146 2.04696 3.0763C0.612083 5.45286 0 9.50119 0 16.6126V17.4817H1.98017L0.705467 24H2.47184L3.74655 17.4817H4.33333C5.7488 17.4944 7.11244 16.9483 8.12977 15.9612C9.04946 15.0788 9.71284 13.8715 10.0483 12.4699L10.0513 12.4573L11.5378 5.31429H9.76712L8.35992 12.0763C7.93135 13.8515 6.64983 15.7435 4.33333 15.7435H1.73658C1.78365 9.59104 2.34228 5.94336 3.52977 3.9762C4.52644 2.3249 5.98325 1.73875 9.09399 1.73793L15.1286 1.82484C15.2665 1.82695 15.402 1.862 15.5238 1.9271C15.6455 1.9922 15.7501 2.08546 15.8287 2.19916L19.4296 7.4148L24.2667 8.22329V9.14448L23.46 13.4585C23.222 14.7318 22.815 15.3732 21.1461 15.5743L14.3046 16.748L14.2593 24H15.9927L16.0288 18.2154L21.375 17.2974C22.5862 17.1481 23.4798 16.7567 24.1064 16.1012C24.6421 15.5407 24.9682 14.8247 25.1637 13.7789L26 9.30603V6.75081L20.4371 5.82109Z" fill="#263238"/>
</svg>