<svg width="84" height="84" viewBox="0 0 84 84" fill="none" xmlns="http://www.w3.org/2000/svg">
<path d="M19.7736 28.392V29.0338C19.7736 29.2371 19.9164 29.3194 20.0911 29.2169L20.7111 28.8591V27.4831L20.0911 27.841C19.9988 27.9016 19.9219 27.983 19.8668 28.0787C19.8116 28.1744 19.7797 28.2817 19.7736 28.392Z" fill="#E0E0E0"/>
<path d="M20.711 49.4508L18.1238 50.946C18.0313 51.006 17.9543 51.0871 17.8991 51.1826C17.8439 51.2781 17.8121 51.3852 17.8063 51.4954V52.1388C17.8063 52.3404 17.9474 52.4227 18.1238 52.3219L20.711 50.8284V49.4508Z" fill="#E0E0E0"/>
<path d="M17.808 27.8393V28.4827C17.808 28.6843 17.9491 28.7666 18.1255 28.6658L20.7127 27.1706V25.7947L18.1255 27.2899C18.033 27.3499 17.956 27.431 17.9008 27.5265C17.8456 27.622 17.8138 27.7292 17.808 27.8393Z" fill="#E0E0E0"/>
<path d="M19.2058 35.112L16.2658 36.8105C16.1735 36.8708 16.0967 36.9519 16.0416 37.0474C15.9864 37.1428 15.9545 37.2498 15.9482 37.3599V38.0033C15.9482 38.2049 16.091 38.2872 16.2658 38.1864L19.2058 36.4896C19.2983 36.4292 19.3753 36.3478 19.4305 36.2521C19.4857 36.1563 19.5174 36.0489 19.5233 35.9386V35.2968C19.5233 35.0851 19.3822 35.0028 19.2058 35.112Z" fill="#E0E0E0"/>
<path d="M20.711 42.6922L18.1238 44.1874C18.0313 44.2474 17.9543 44.3284 17.8991 44.4239C17.8439 44.5194 17.8121 44.6266 17.8063 44.7367V45.3802C17.8063 45.5818 17.9474 45.6641 18.1238 45.5633L20.711 44.0681V42.6922Z" fill="#E0E0E0"/>
<path d="M17.808 21.0806V21.7224C17.808 21.9257 17.9491 22.008 18.1255 21.9072L20.7127 20.412V19.0361L18.1255 20.5313C18.0328 20.5911 17.9557 20.6721 17.9004 20.7676C17.8452 20.8632 17.8135 20.9704 17.808 21.0806Z" fill="#E0E0E0"/>
<path d="M20.711 59.5896L18.1238 61.0848C18.0313 61.1449 17.9543 61.2259 17.8991 61.3214C17.8439 61.4169 17.8121 61.5241 17.8063 61.6342V62.2776C17.8063 62.4792 17.9474 62.5616 18.1238 62.4608L20.711 60.9656V59.5896Z" fill="#E0E0E0"/>
<path d="M14.8613 41.3986V42.0403C14.8613 42.2436 15.0024 42.3259 15.1788 42.2235L18.1171 40.5266C18.2098 40.4667 18.2871 40.3857 18.3426 40.2902C18.398 40.1948 18.4302 40.0875 18.4363 39.9773V39.3338C18.4363 39.1322 18.2935 39.0499 18.1171 39.1507L15.1788 40.8475C15.0862 40.9079 15.0092 40.9893 14.9541 41.085C14.8989 41.1808 14.8671 41.2882 14.8613 41.3986Z" fill="#E0E0E0"/>
<path d="M17.808 34.5979V35.2414C17.808 35.443 17.9491 35.5253 18.1255 35.4245L20.7127 33.931V32.5534L18.1255 34.0486C18.033 34.1086 17.956 34.1897 17.9008 34.2851C17.8456 34.3806 17.8138 34.4878 17.808 34.5979Z" fill="#E0E0E0"/>
<path d="M17.556 45.528V44.8863C17.556 44.683 17.4132 44.6007 17.2385 44.7031L14.2985 46.3999C14.2062 46.4603 14.1295 46.5414 14.0743 46.6368C14.0192 46.7322 13.9872 46.8393 13.981 46.9493V47.5927C13.981 47.7943 14.1238 47.8767 14.2985 47.7759L17.2385 46.0791C17.3308 46.0185 17.4077 45.937 17.4628 45.8413C17.518 45.7456 17.5499 45.6383 17.556 45.528Z" fill="#E0E0E0"/>
<path d="M16.2658 61.8341L19.2058 60.1373C19.2983 60.0769 19.3753 59.9955 19.4305 59.8998C19.4857 59.804 19.5174 59.6966 19.5233 59.5862V58.9445C19.5233 58.7412 19.3822 58.6589 19.2058 58.7614L16.2658 60.4582C16.1735 60.5185 16.0967 60.5996 16.0416 60.695C15.9864 60.7905 15.9545 60.8975 15.9482 61.0075V61.656C15.9482 61.8526 16.091 61.9349 16.2658 61.8341Z" fill="#E0E0E0"/>
<path d="M17.5711 19.1755L14.6311 20.8723C14.5386 20.9324 14.4616 21.0134 14.4064 21.1089C14.3512 21.2044 14.3194 21.3116 14.3136 21.4217V22.0651C14.3136 22.2667 14.4547 22.349 14.6311 22.2482L17.5711 20.5515C17.6635 20.4909 17.7403 20.4094 17.7955 20.3137C17.8506 20.218 17.8825 20.1107 17.8886 20.0004V19.3587C17.8886 19.152 17.7458 19.0731 17.5711 19.1755Z" fill="#E0E0E0"/>
<path d="M19.2058 21.5863L16.2658 23.2831C16.1734 23.3437 16.0965 23.4251 16.0414 23.5208C15.9862 23.6166 15.9543 23.7239 15.9482 23.8342V24.4759C15.9482 24.6792 16.091 24.7615 16.2658 24.6591L19.2058 22.9622C19.2983 22.9022 19.3753 22.8212 19.4305 22.7257C19.4856 22.6302 19.5175 22.523 19.5233 22.4129V21.7694C19.5233 21.5678 19.3822 21.4855 19.2058 21.5863Z" fill="#E0E0E0"/>
<path d="M19.2058 28.345L16.2658 30.0434C16.1733 30.1036 16.0964 30.1847 16.0412 30.2801C15.9861 30.3756 15.9542 30.4827 15.9482 30.5928V31.2362C15.9482 31.4378 16.091 31.5202 16.2658 31.4194L19.2058 29.7209C19.2983 29.6609 19.3753 29.5798 19.4305 29.4843C19.4856 29.3888 19.5175 29.2816 19.5233 29.1715V28.5281C19.5233 28.3265 19.3822 28.2442 19.2058 28.345Z" fill="#E0E0E0"/>
<path d="M16.2658 48.3168L19.2058 46.6183C19.2985 46.5585 19.3756 46.4775 19.4308 46.382C19.486 46.2865 19.5177 46.1792 19.5233 46.069V45.4255C19.5233 45.2239 19.3822 45.1416 19.2058 45.2424L16.2658 46.9409C16.1733 47.001 16.0964 47.0821 16.0412 47.1776C15.9861 47.273 15.9542 47.3802 15.9482 47.4902V48.1337C15.9482 48.3353 16.091 48.4176 16.2658 48.3168Z" fill="#E0E0E0"/>
<path d="M20.711 52.831L18.1238 54.3262C18.0311 54.386 17.9539 54.467 17.8987 54.5625C17.8435 54.6581 17.8118 54.7653 17.8063 54.8755V55.5173C17.8063 55.7206 17.9474 55.8029 18.1238 55.7021L20.711 54.2069V52.831Z" fill="#E0E0E0"/>
<path d="M48.174 14.0919V14.7336C48.1686 14.8445 48.137 14.9526 48.0818 15.0489C48.0266 15.1453 47.9494 15.2272 47.8565 15.288L47.2366 15.6459V14.2666L47.8565 13.9087C48.0312 13.8079 48.174 13.8886 48.174 14.0919Z" fill="#E0E0E0"/>
<path d="M47.2366 36.2376L49.8254 34.7441C49.9934 34.6416 50.143 34.7239 50.143 34.9272V35.569C50.1369 35.6792 50.105 35.7866 50.0498 35.8823C49.9947 35.978 49.9178 36.0594 49.8254 36.12L47.2366 37.6135V36.2376Z" fill="#E0E0E0"/>
<path d="M50.143 11.2711V11.9129C50.1369 12.0232 50.105 12.1305 50.0498 12.2262C49.9947 12.3219 49.9178 12.4033 49.8254 12.4639L47.2366 13.9574V12.5815L49.8254 11.088C50.0002 10.9855 50.143 11.0678 50.143 11.2711Z" fill="#E0E0E0"/>
<path d="M48.7418 20.16L51.6818 18.4615C51.8498 18.3607 51.9994 18.443 51.9994 18.6446V19.2881C51.9934 19.3982 51.9615 19.5053 51.9064 19.6008C51.8512 19.6962 51.7743 19.7773 51.6818 19.8374L48.7418 21.5359C48.5654 21.6367 48.4243 21.5544 48.4243 21.3528V20.7094C48.4301 20.5992 48.462 20.492 48.5171 20.3966C48.5723 20.3011 48.6493 20.22 48.7418 20.16Z" fill="#E0E0E0"/>
<path d="M47.2366 29.479L49.8254 27.9855C49.9934 27.883 50.143 27.9653 50.143 28.1686V28.8103C50.1369 28.9206 50.105 29.0279 50.0498 29.1237C49.9947 29.2194 49.9178 29.3008 49.8254 29.3614L47.2366 30.8549V29.479Z" fill="#E0E0E0"/>
<path d="M50.143 4.51081V5.15425C50.1383 5.26579 50.1071 5.37461 50.0518 5.47163C49.9966 5.56865 49.919 5.65107 49.8254 5.71201L47.2366 7.20721V5.82289L49.8254 4.32769C50.0002 4.22689 50.143 4.30921 50.143 4.51081Z" fill="#E0E0E0"/>
<path d="M47.2366 46.3764L49.8254 44.8829C49.9934 44.7804 50.143 44.8627 50.143 45.066V45.7078C50.1369 45.8181 50.105 45.9254 50.0498 46.0211C49.9947 46.1168 49.9178 46.1982 49.8254 46.2588L47.2366 47.7523V46.3764Z" fill="#E0E0E0"/>
<path d="M53.088 21.4284V22.0719C53.0817 22.1819 53.0498 22.2889 52.9946 22.3843C52.9395 22.4798 52.8627 22.5609 52.7705 22.6212L49.8305 24.318C49.6541 24.4205 49.5129 24.3382 49.5129 24.1349V23.4931C49.5188 23.3828 49.5506 23.2754 49.6057 23.1796C49.6609 23.0839 49.7379 23.0025 49.8305 22.9421L52.7705 21.2453C52.9452 21.1445 53.088 21.2268 53.088 21.4284Z" fill="#E0E0E0"/>
<path d="M50.143 18.0298V18.6715C50.137 18.7819 50.1051 18.8892 50.05 18.985C49.9948 19.0807 49.9179 19.1621 49.8254 19.2226L47.2366 20.7161V19.3402L49.8254 17.8467C50.0002 17.7442 50.143 17.8265 50.143 18.0298Z" fill="#E0E0E0"/>
<path d="M50.4 28.6625V28.0207C50.4059 27.9104 50.4378 27.8031 50.4929 27.7073C50.5481 27.6116 50.625 27.5302 50.7175 27.4697L53.6575 25.7729C53.8339 25.6721 53.975 25.7527 53.975 25.956V26.5995C53.9692 26.7096 53.9374 26.8168 53.8822 26.9123C53.827 27.0077 53.75 27.0888 53.6575 27.1488L50.7175 28.8456C50.5344 28.9481 50.4 28.8658 50.4 28.6625Z" fill="#E0E0E0"/>
<path d="M51.6818 43.4885L48.7418 45.192C48.5654 45.2928 48.4243 45.2105 48.4243 45.0089V44.352C48.4301 44.2419 48.462 44.1347 48.5171 44.0392C48.5723 43.9437 48.6493 43.8627 48.7418 43.8026L51.6818 42.1058C51.8498 42.0033 51.9994 42.0857 51.9994 42.2889V42.9307C51.9943 43.0422 51.9629 43.1508 51.9077 43.2478C51.8525 43.3447 51.7751 43.4272 51.6818 43.4885Z" fill="#E0E0E0"/>
<path d="M48.7418 6.63432L51.6818 4.93752C51.8498 4.83672 51.9994 4.91904 51.9994 5.12064V5.76408C51.9931 5.87412 51.9612 5.98115 51.906 6.07657C51.8509 6.17199 51.7741 6.25312 51.6818 6.31344L48.7418 8.01024C48.5654 8.11272 48.4243 8.0304 48.4243 7.82712V7.18536C48.4302 7.07501 48.462 6.96759 48.5171 6.87184C48.5723 6.77609 48.6493 6.69471 48.7418 6.63432Z" fill="#E0E0E0"/>
<path d="M48.7418 13.393L51.6818 11.6962C51.8498 11.5954 51.9994 11.6777 51.9994 11.8793V12.5227C51.9931 12.6328 51.9612 12.7398 51.906 12.8352C51.8509 12.9306 51.7741 13.0118 51.6818 13.0721L48.7418 14.7706C48.5654 14.8714 48.4243 14.7891 48.4243 14.5858V13.944C48.4302 13.8337 48.462 13.7262 48.5171 13.6305C48.5723 13.5347 48.6493 13.4534 48.7418 13.393Z" fill="#E0E0E0"/>
<path d="M51.6818 29.9695L48.7418 31.668C48.5654 31.7688 48.4243 31.6865 48.4243 31.4832V30.8415C48.4302 30.7311 48.462 30.6237 48.5171 30.5279C48.5723 30.4322 48.6493 30.3508 48.7418 30.2904L51.6818 28.5936C51.8498 28.4928 51.9994 28.5751 51.9994 28.7767V29.4202C51.9931 29.5302 51.9612 29.6372 51.906 29.7327C51.8509 29.8281 51.7741 29.9092 51.6818 29.9695Z" fill="#E0E0E0"/>
<path d="M47.2366 39.6178L49.8254 38.1226C49.9934 38.0218 50.143 38.1041 50.143 38.3057V38.9491C50.1367 39.0592 50.1048 39.1662 50.0496 39.2616C49.9945 39.357 49.9177 39.4382 49.8254 39.4985L47.2366 40.992V39.6178Z" fill="#E0E0E0"/>
<path d="M23.3318 46.6301L44.5401 58.8806V7.62048L23.3318 19.8727V46.6301Z" fill="#BA68C8"/>
<path opacity="0.4" d="M23.3318 46.6301L44.5401 58.8806V7.62048L23.3318 19.8727V46.6301Z" fill="black"/>
<path d="M44.5401 58.8806L23.3318 46.6301V71.1211L44.5401 58.8806Z" fill="#E0E0E0"/>
<path d="M44.5402 58.8807L45.5314 59.4502V7.04761L44.5402 7.62049V58.8807Z" fill="#BA68C8"/>
<path opacity="0.4" d="M44.5402 58.8807L45.5314 59.4502V7.04761L44.5402 7.62049V58.8807Z" fill="white"/>
<path opacity="0.1" d="M44.5402 58.8807L45.5314 59.4502V7.04761L44.5402 7.62049V58.8807Z" fill="black"/>
<path d="M45.5314 59.4502L47.2366 58.4657V3.45241L21.6871 18.2028L21.6888 73.2161L23.3319 72.2669V19.8727L45.5314 7.04761V59.4502Z" fill="#BA68C8"/>
<path opacity="0.7" d="M45.5314 59.4502L47.2366 58.4657V3.45241L21.6871 18.2028L21.6888 73.2161L23.3319 72.2669V19.8727L45.5314 7.04761V59.4502Z" fill="white"/>
<path d="M47.2366 3.45241L21.6871 18.2028L20.7111 17.635L46.2605 2.88625L47.2366 3.45241Z" fill="#BA68C8"/>
<path opacity="0.85" d="M47.2366 3.45241L21.6871 18.2028L20.7111 17.635L46.2605 2.88625L47.2366 3.45241Z" fill="white"/>
<path d="M21.6871 73.2161V18.2028L20.711 17.635L20.6959 72.6432L21.6871 73.2161Z" fill="#BA68C8"/>
<path opacity="0.6" d="M20.711 17.635L20.6959 72.6432L21.6871 73.2161V18.2028" fill="white"/>
<path d="M23.3318 71.4201L47.1223 67.7275V16.1717L23.3318 19.8727V71.4201Z" fill="#455A64"/>
<path d="M46.3982 15.7534L47.1223 16.1717L23.3318 19.8727L24.5902 19.1453L46.3982 15.7534Z" fill="#37474F"/>
<path d="M26.124 46.5645L42.7728 43.9773V64.932L26.124 67.5175V46.5645Z" fill="#455A64"/>
<path opacity="0.1" d="M26.124 46.5645L42.7728 43.9773V64.932L26.124 67.5175V46.5645Z" fill="black"/>
<path d="M27.3739 47.6347L41.5245 45.4339V63.8602L27.3739 66.061V47.6347Z" fill="#455A64"/>
<path d="M26.124 67.5175L27.3739 66.061L41.5246 63.8602L42.7728 64.932L26.124 67.5175Z" fill="#263238"/>
<path d="M26.124 46.5645L27.3739 47.6347V66.0609L26.124 67.5175V46.5645Z" fill="#37474F"/>
<path d="M41.5246 45.4339L42.7728 43.9773V64.932L41.5246 63.8601V45.4339Z" fill="#37474F"/>
<path d="M35.5824 21.1898L42.7728 20.071V41.0256L35.5841 42.1428L35.5824 21.1898Z" fill="#455A64"/>
<path opacity="0.1" d="M35.5824 21.1898L42.7728 20.071V41.0256L35.5841 42.1428L35.5824 21.1898Z" fill="black"/>
<path d="M36.8323 22.26L41.5246 21.5292V39.9554L36.8323 40.6862V22.26Z" fill="#455A64"/>
<path d="M35.5841 42.1428L36.8323 40.6862L41.5246 39.9554L42.7728 41.0256L35.5841 42.1428Z" fill="#263238"/>
<path d="M35.5824 21.1898L36.8323 22.26V40.6862L35.5841 42.1428L35.5824 21.1898Z" fill="#37474F"/>
<path d="M41.5246 21.5292L42.7728 20.071V41.0256L41.5246 39.9554V21.5292Z" fill="#37474F"/>
<path d="M26.1357 22.6531L33.3261 21.5342V42.4889L26.1357 43.6061V22.6531Z" fill="#455A64"/>
<path opacity="0.1" d="M26.1357 22.6531L33.3261 21.5342V42.4889L26.1357 43.6061V22.6531Z" fill="black"/>
<path d="M27.384 23.7233L32.0763 22.9908L32.078 41.4187L27.384 42.1495V23.7233Z" fill="#455A64"/>
<path d="M26.1357 43.6061L27.384 42.1495L32.0779 41.4187L33.3261 42.4889L26.1357 43.6061Z" fill="#263238"/>
<path d="M26.1357 22.6531L27.384 23.7233V42.1495L26.1357 43.6061V22.6531Z" fill="#37474F"/>
<path d="M32.0762 22.9908L33.3262 21.5342V42.4889L32.0779 41.4187L32.0762 22.9908Z" fill="#37474F"/>
<path d="M43.9169 40.1621L44.2411 40.4897V45.8724L43.9169 45.5465V40.1621Z" fill="#E0E0E0"/>
<path d="M44.2411 40.4897L45.99 40.2276V45.612L44.2411 45.8724V40.4897Z" fill="#FAFAFA"/>
<path opacity="0.05" d="M45.99 41.7094L44.2411 41.9647V43.0181L45.99 42.7644V41.7094Z" fill="black"/>
<path d="M45.99 40.2276L45.6658 39.9017L43.9169 40.1621L44.2411 40.4897L45.99 40.2276Z" fill="#EBEBEB"/>
<path d="M44.9114 41.5094L45.7145 42.3158L46.0353 41.8958L45.2323 41.0911C45.212 41.07 45.1868 41.0542 45.1591 41.0448C45.1313 41.0355 45.1017 41.0329 45.0727 41.0374C45.0066 41.0529 44.9478 41.0908 44.9065 41.1447C44.8651 41.1986 44.8437 41.2651 44.8459 41.333C44.8442 41.3981 44.8676 41.4613 44.9114 41.5094Z" fill="#E0E0E0"/>
<path opacity="0.1" d="M44.2411 41.9748L45.5163 42.1159V41.7329L45.8271 41.6875L45.5348 41.3935L44.2411 41.5901V41.9748Z" fill="black"/>
<path d="M41.6153 42.4368V43.2768L46.1714 42.5947V41.7547L41.6153 42.4368Z" fill="#FAFAFA"/>
<path d="M41.6153 42.4368L41.3246 42.1428V42.9845L41.6153 43.2768V42.4368Z" fill="#E0E0E0"/>
<path d="M46.1714 41.7547L45.8791 41.4607L41.3246 42.1428L41.6153 42.4368L46.1714 41.7547Z" fill="#EBEBEB"/>
<path d="M44.8207 43.848C44.8187 43.7597 44.8469 43.6734 44.9007 43.6034C44.9545 43.5334 45.0306 43.484 45.1164 43.4633C45.1562 43.4596 45.1964 43.4647 45.234 43.4784C45.2715 43.4921 45.3056 43.514 45.3337 43.5424C45.3618 43.5708 45.3833 43.6052 45.3966 43.6429C45.4098 43.6806 45.4145 43.7208 45.4104 43.7606C45.4101 43.8268 45.3937 43.892 45.3627 43.9505C45.3317 44.009 45.2869 44.0592 45.2323 44.0966V44.646C45.2332 44.6758 45.2239 44.7051 45.2059 44.729C45.1878 44.7528 45.1622 44.7698 45.1332 44.777H45.0979C45.0844 44.7784 45.0708 44.7767 45.0581 44.7721C45.0453 44.7674 45.0337 44.76 45.0242 44.7504C45.0147 44.7407 45.0075 44.729 45.0031 44.7162C44.9987 44.7033 44.9972 44.6897 44.9988 44.6762V44.1269C44.9442 44.1042 44.8978 44.0653 44.8659 44.0154C44.8341 43.9656 44.8183 43.9071 44.8207 43.848Z" fill="#455A64"/>
</svg>
