<svg width="46" height="59" viewBox="0 0 46 59" fill="none" xmlns="http://www.w3.org/2000/svg">
<path d="M23.8209 1C18.2039 1 12.8169 3.23137 8.845 7.20322C4.87315 11.1751 2.64178 16.5621 2.64178 22.1791C2.64178 32.7441 22.1791 57.6418 22.1791 57.6418H23.8209C23.8209 57.6418 45 33.8753 45 22.1791C45 16.5621 42.7687 11.1751 38.7968 7.20322C34.8249 3.23137 29.438 1 23.8209 1ZM23.8209 32.5224C21.7752 32.5224 19.7754 31.9158 18.0745 30.7793C16.3735 29.6427 15.0478 28.0273 14.2649 26.1373C13.4821 24.2473 13.2773 22.1677 13.6764 20.1612C14.0755 18.1548 15.0606 16.3118 16.5071 14.8653C17.9536 13.4188 19.7966 12.4337 21.803 12.0346C23.8094 11.6355 25.8891 11.8403 27.7791 12.6232C29.6691 13.406 31.2845 14.7318 32.421 16.4327C33.5576 18.1336 34.1642 20.1334 34.1642 22.1791C34.1642 23.5374 33.8967 24.8824 33.3769 26.1373C32.8571 27.3922 32.0952 28.5325 31.1347 29.4929C30.1742 30.4534 29.034 31.2153 27.7791 31.7351C26.5242 32.2549 25.1792 32.5224 23.8209 32.5224Z" fill="white" stroke="white" stroke-linecap="round" stroke-linejoin="round"/>
<path d="M22.1791 1C16.5621 1 11.1751 3.23137 7.20322 7.20322C3.23136 11.1751 1 16.5621 1 22.1791C1 33.8753 22.1791 57.6418 22.1791 57.6418C22.1791 57.6418 43.3582 33.8753 43.3582 22.1791C43.3582 16.5621 41.1269 11.1751 37.155 7.20322C33.1832 3.23137 27.7962 1 22.1791 1ZM22.1791 32.5224C20.1334 32.5224 18.1336 31.9158 16.4327 30.7793C14.7317 29.6427 13.406 28.0273 12.6232 26.1373C11.8403 24.2473 11.6355 22.1677 12.0346 20.1612C12.4337 18.1548 13.4188 16.3118 14.8653 14.8653C16.3118 13.4188 18.1548 12.4337 20.1612 12.0346C22.1676 11.6355 24.2473 11.8403 26.1373 12.6232C28.0273 13.406 29.6427 14.7318 30.7792 16.4327C31.9158 18.1336 32.5224 20.1334 32.5224 22.1791C32.5224 24.9223 31.4327 27.5532 29.4929 29.4929C27.5532 31.4327 24.9223 32.5224 22.1791 32.5224Z" fill="white" stroke="white" stroke-linecap="round" stroke-linejoin="round"/>
</svg>
