<svg width="228" height="173" viewBox="0 0 228 173" fill="none" xmlns="http://www.w3.org/2000/svg">
<path d="M132.35 66.264C133.466 66.264 134.468 66.108 135.356 65.796C136.244 65.484 136.994 65.052 137.606 64.5C138.23 63.948 138.704 63.3 139.028 62.556C139.364 61.8 139.532 60.978 139.532 60.09C139.532 58.134 138.932 56.628 137.732 55.572C136.532 54.516 134.738 53.988 132.35 53.988H127.616V66.264H132.35ZM132.35 52.53C135.338 52.53 137.588 53.184 139.1 54.492C140.624 55.8 141.386 57.666 141.386 60.09C141.386 61.206 141.176 62.232 140.756 63.168C140.336 64.104 139.736 64.914 138.956 65.598C138.176 66.27 137.228 66.798 136.112 67.182C134.996 67.554 133.742 67.74 132.35 67.74H127.616V78H125.762V52.53H132.35ZM155.193 69.342C153.489 69.402 152.019 69.54 150.783 69.756C149.559 69.96 148.545 70.242 147.741 70.602C146.949 70.962 146.361 71.394 145.977 71.898C145.593 72.39 145.401 72.954 145.401 73.59C145.401 74.19 145.497 74.712 145.689 75.156C145.893 75.588 146.157 75.948 146.481 76.236C146.817 76.512 147.201 76.716 147.633 76.848C148.065 76.98 148.515 77.046 148.983 77.046C149.679 77.046 150.315 76.974 150.891 76.83C151.479 76.674 152.019 76.464 152.511 76.2C153.015 75.924 153.483 75.6 153.915 75.228C154.347 74.856 154.773 74.454 155.193 74.022V69.342ZM144.663 62.628C145.599 61.692 146.583 60.984 147.615 60.504C148.647 60.024 149.817 59.784 151.125 59.784C152.085 59.784 152.925 59.94 153.645 60.252C154.365 60.552 154.959 60.99 155.427 61.566C155.907 62.13 156.267 62.82 156.507 63.636C156.747 64.44 156.867 65.34 156.867 66.336V78H156.183C155.823 78 155.601 77.832 155.517 77.496L155.265 75.192C154.773 75.672 154.281 76.104 153.789 76.488C153.309 76.872 152.805 77.196 152.277 77.46C151.749 77.724 151.179 77.928 150.567 78.072C149.955 78.216 149.283 78.288 148.551 78.288C147.939 78.288 147.345 78.198 146.769 78.018C146.193 77.838 145.677 77.562 145.221 77.19C144.777 76.818 144.417 76.344 144.141 75.768C143.877 75.18 143.745 74.478 143.745 73.662C143.745 72.906 143.961 72.204 144.393 71.556C144.825 70.908 145.503 70.344 146.427 69.864C147.351 69.384 148.533 69 149.973 68.712C151.425 68.424 153.165 68.256 155.193 68.208V66.336C155.193 64.68 154.833 63.408 154.113 62.52C153.405 61.62 152.349 61.17 150.945 61.17C150.081 61.17 149.343 61.29 148.731 61.53C148.131 61.77 147.621 62.034 147.201 62.322C146.781 62.61 146.439 62.874 146.175 63.114C145.911 63.354 145.689 63.474 145.509 63.474C145.377 63.474 145.269 63.444 145.185 63.384C145.101 63.324 145.029 63.246 144.969 63.15L144.663 62.628ZM162.604 78V60.09H163.558C163.858 60.09 164.032 60.24 164.08 60.54L164.242 63.132C164.938 62.136 165.736 61.332 166.636 60.72C167.536 60.108 168.55 59.802 169.678 59.802C170.986 59.802 172.03 60.18 172.81 60.936C173.602 61.692 174.136 62.742 174.412 64.086C174.628 63.354 174.928 62.718 175.312 62.178C175.708 61.638 176.158 61.194 176.662 60.846C177.166 60.486 177.712 60.222 178.3 60.054C178.9 59.886 179.512 59.802 180.136 59.802C181.024 59.802 181.822 59.952 182.53 60.252C183.238 60.54 183.838 60.972 184.33 61.548C184.822 62.124 185.2 62.832 185.464 63.672C185.728 64.512 185.86 65.472 185.86 66.552V78H184.15V66.552C184.15 64.8 183.772 63.468 183.016 62.556C182.26 61.632 181.18 61.17 179.776 61.17C179.152 61.17 178.552 61.284 177.976 61.512C177.412 61.74 176.908 62.082 176.464 62.538C176.032 62.982 175.684 63.54 175.42 64.212C175.168 64.884 175.042 65.664 175.042 66.552V78H173.314V66.552C173.314 64.812 172.966 63.48 172.27 62.556C171.586 61.632 170.578 61.17 169.246 61.17C168.274 61.17 167.374 61.458 166.546 62.034C165.718 62.61 164.98 63.408 164.332 64.428V78H162.604ZM193.301 74.094C193.649 74.61 194.009 75.048 194.381 75.408C194.765 75.756 195.167 76.044 195.587 76.272C196.007 76.488 196.451 76.644 196.919 76.74C197.399 76.836 197.903 76.884 198.431 76.884C199.487 76.884 200.411 76.692 201.203 76.308C201.995 75.924 202.655 75.384 203.183 74.688C203.723 73.98 204.125 73.14 204.389 72.168C204.665 71.184 204.803 70.104 204.803 68.928C204.803 66.264 204.311 64.308 203.327 63.06C202.343 61.8 200.933 61.17 199.097 61.17C197.909 61.17 196.835 61.476 195.875 62.088C194.915 62.7 194.057 63.552 193.301 64.644V74.094ZM193.229 63.312C194.021 62.232 194.945 61.374 196.001 60.738C197.069 60.102 198.263 59.784 199.583 59.784C201.779 59.784 203.489 60.546 204.713 62.07C205.949 63.594 206.567 65.88 206.567 68.928C206.567 70.236 206.393 71.46 206.045 72.6C205.709 73.728 205.205 74.712 204.533 75.552C203.873 76.38 203.057 77.034 202.085 77.514C201.125 77.994 200.015 78.234 198.755 78.234C197.543 78.234 196.493 78.012 195.605 77.568C194.717 77.124 193.949 76.47 193.301 75.606V84.336H191.573V60.09H192.527C192.827 60.09 193.001 60.24 193.049 60.54L193.229 63.312ZM221.462 69.342C219.758 69.402 218.288 69.54 217.052 69.756C215.828 69.96 214.814 70.242 214.01 70.602C213.218 70.962 212.63 71.394 212.246 71.898C211.862 72.39 211.67 72.954 211.67 73.59C211.67 74.19 211.766 74.712 211.958 75.156C212.162 75.588 212.426 75.948 212.75 76.236C213.086 76.512 213.47 76.716 213.902 76.848C214.334 76.98 214.784 77.046 215.252 77.046C215.948 77.046 216.584 76.974 217.16 76.83C217.748 76.674 218.288 76.464 218.78 76.2C219.284 75.924 219.752 75.6 220.184 75.228C220.616 74.856 221.042 74.454 221.462 74.022V69.342ZM210.932 62.628C211.868 61.692 212.852 60.984 213.884 60.504C214.916 60.024 216.086 59.784 217.394 59.784C218.354 59.784 219.194 59.94 219.914 60.252C220.634 60.552 221.228 60.99 221.696 61.566C222.176 62.13 222.536 62.82 222.776 63.636C223.016 64.44 223.136 65.34 223.136 66.336V78H222.452C222.092 78 221.87 77.832 221.786 77.496L221.534 75.192C221.042 75.672 220.55 76.104 220.058 76.488C219.578 76.872 219.074 77.196 218.546 77.46C218.018 77.724 217.448 77.928 216.836 78.072C216.224 78.216 215.552 78.288 214.82 78.288C214.208 78.288 213.614 78.198 213.038 78.018C212.462 77.838 211.946 77.562 211.49 77.19C211.046 76.818 210.686 76.344 210.41 75.768C210.146 75.18 210.014 74.478 210.014 73.662C210.014 72.906 210.23 72.204 210.662 71.556C211.094 70.908 211.772 70.344 212.696 69.864C213.62 69.384 214.802 69 216.242 68.712C217.694 68.424 219.434 68.256 221.462 68.208V66.336C221.462 64.68 221.102 63.408 220.382 62.52C219.674 61.62 218.618 61.17 217.214 61.17C216.35 61.17 215.612 61.29 215 61.53C214.4 61.77 213.89 62.034 213.47 62.322C213.05 62.61 212.708 62.874 212.444 63.114C212.18 63.354 211.958 63.474 211.778 63.474C211.646 63.474 211.538 63.444 211.454 63.384C211.37 63.324 211.298 63.246 211.238 63.15L210.932 62.628Z" fill="white"/>
<path d="M84.96 119.824C85.824 119.824 86.568 120.16 87.192 120.832L93.24 127.456C89.016 132.448 83.856 136.312 77.76 139.048C71.712 141.784 64.416 143.152 55.872 143.152C48.384 143.152 41.592 141.856 35.496 139.264C29.448 136.672 24.264 133.048 19.944 128.392C15.672 123.736 12.36 118.168 10.008 111.688C7.656 105.208 6.48 98.08 6.48 90.304C6.48 82.528 7.704 75.4 10.152 68.92C12.648 62.44 16.128 56.872 20.592 52.216C25.056 47.56 30.384 43.936 36.576 41.344C42.816 38.752 49.704 37.456 57.24 37.456C64.584 37.456 71.112 38.656 76.824 41.056C82.536 43.456 87.504 46.648 91.728 50.632L86.688 57.76C86.352 58.288 85.92 58.72 85.392 59.056C84.912 59.392 84.264 59.56 83.448 59.56C82.536 59.56 81.456 59.104 80.208 58.192C79.008 57.28 77.4 56.272 75.384 55.168C73.416 54.016 70.968 52.984 68.04 52.072C65.112 51.16 61.464 50.704 57.096 50.704C51.96 50.704 47.256 51.616 42.984 53.44C38.712 55.216 35.016 57.808 31.896 61.216C28.824 64.576 26.424 68.728 24.696 73.672C23.016 78.568 22.176 84.112 22.176 90.304C22.176 96.592 23.064 102.184 24.84 107.08C26.616 111.976 29.064 116.128 32.184 119.536C35.304 122.944 38.976 125.536 43.2 127.312C47.424 129.088 51.984 129.976 56.88 129.976C59.856 129.976 62.52 129.808 64.872 129.472C67.272 129.088 69.456 128.536 71.424 127.816C73.44 127.096 75.336 126.184 77.112 125.08C78.888 123.928 80.64 122.56 82.368 120.976C82.752 120.64 83.16 120.376 83.592 120.184C84.024 119.944 84.48 119.824 84.96 119.824ZM128.69 120.352C124.882 120.48 121.65 120.784 118.994 121.264C116.338 121.712 114.178 122.32 112.514 123.088C110.85 123.856 109.65 124.768 108.914 125.824C108.178 126.848 107.81 128 107.81 129.28C107.81 130.496 108.002 131.552 108.386 132.448C108.802 133.312 109.346 134.032 110.018 134.608C110.722 135.152 111.538 135.552 112.466 135.808C113.394 136.064 114.402 136.192 115.49 136.192C116.93 136.192 118.242 136.048 119.426 135.76C120.642 135.472 121.778 135.072 122.834 134.56C123.89 134.016 124.898 133.36 125.858 132.592C126.818 131.824 127.762 130.944 128.69 129.952V120.352ZM101.234 100.048C103.954 97.456 106.898 95.52 110.066 94.24C113.266 92.96 116.77 92.32 120.578 92.32C123.362 92.32 125.826 92.784 127.97 93.712C130.114 94.608 131.922 95.872 133.394 97.504C134.866 99.136 135.97 101.088 136.706 103.36C137.474 105.632 137.858 108.144 137.858 110.896V142H133.682C132.754 142 132.05 141.856 131.57 141.568C131.09 141.248 130.706 140.672 130.418 139.84L129.41 135.568C128.162 136.72 126.93 137.744 125.714 138.64C124.498 139.504 123.218 140.256 121.874 140.896C120.562 141.504 119.154 141.968 117.65 142.288C116.146 142.608 114.482 142.768 112.658 142.768C110.738 142.768 108.93 142.512 107.234 142C105.57 141.456 104.114 140.64 102.866 139.552C101.618 138.464 100.626 137.104 99.8903 135.472C99.1863 133.84 98.8343 131.936 98.8343 129.76C98.8343 127.84 99.3463 126 100.37 124.24C101.426 122.448 103.122 120.848 105.458 119.44C107.826 118.032 110.898 116.88 114.674 115.984C118.482 115.088 123.154 114.576 128.69 114.448V110.896C128.69 107.216 127.906 104.464 126.338 102.64C124.77 100.816 122.466 99.904 119.426 99.904C117.378 99.904 115.65 100.16 114.242 100.672C112.866 101.184 111.666 101.76 110.642 102.4C109.65 103.008 108.77 103.568 108.002 104.08C107.266 104.592 106.498 104.848 105.698 104.848C105.058 104.848 104.498 104.672 104.018 104.32C103.57 103.968 103.202 103.552 102.914 103.072L101.234 100.048ZM159.221 102.592C160.789 99.392 162.677 96.88 164.885 95.056C167.093 93.232 169.749 92.32 172.853 92.32C173.909 92.32 174.901 92.448 175.829 92.704C176.789 92.928 177.621 93.28 178.325 93.76L177.701 100.816C177.477 101.68 176.949 102.112 176.117 102.112C175.669 102.112 174.997 102.032 174.101 101.872C173.205 101.68 172.245 101.584 171.221 101.584C169.717 101.584 168.389 101.808 167.237 102.256C166.085 102.672 165.045 103.312 164.117 104.176C163.221 105.008 162.421 106.048 161.717 107.296C161.013 108.512 160.357 109.904 159.749 111.472V142H150.389V93.232H155.765C156.789 93.232 157.477 93.424 157.829 93.808C158.213 94.16 158.485 94.8 158.645 95.728L159.221 102.592ZM216.068 112.192C216.068 110.336 215.796 108.624 215.252 107.056C214.74 105.488 213.972 104.128 212.948 102.976C211.924 101.824 210.676 100.928 209.204 100.288C207.732 99.648 206.036 99.328 204.116 99.328C200.18 99.328 197.076 100.464 194.804 102.736C192.564 105.008 191.14 108.16 190.532 112.192H216.068ZM223.796 135.04C222.644 136.384 221.316 137.552 219.812 138.544C218.308 139.504 216.708 140.288 215.012 140.896C213.316 141.504 211.556 141.952 209.732 142.24C207.94 142.528 206.164 142.672 204.404 142.672C201.044 142.672 197.924 142.112 195.044 140.992C192.196 139.84 189.716 138.176 187.604 136C185.524 133.792 183.892 131.072 182.708 127.84C181.556 124.576 180.98 120.832 180.98 116.608C180.98 113.216 181.508 110.064 182.564 107.152C183.62 104.208 185.124 101.648 187.076 99.472C189.06 97.296 191.476 95.584 194.324 94.336C197.172 93.088 200.372 92.464 203.924 92.464C206.9 92.464 209.636 92.96 212.132 93.952C214.66 94.912 216.836 96.32 218.66 98.176C220.484 100.032 221.908 102.32 222.932 105.04C223.988 107.76 224.516 110.864 224.516 114.352C224.516 115.792 224.356 116.768 224.036 117.28C223.716 117.76 223.124 118 222.26 118H190.292C190.388 120.912 190.804 123.456 191.54 125.632C192.276 127.776 193.284 129.568 194.564 131.008C195.876 132.448 197.428 133.52 199.22 134.224C201.012 134.928 203.012 135.28 205.22 135.28C207.3 135.28 209.092 135.04 210.596 134.56C212.132 134.08 213.444 133.568 214.532 133.024C215.652 132.448 216.58 131.92 217.316 131.44C218.084 130.96 218.756 130.72 219.332 130.72C220.1 130.72 220.692 131.008 221.108 131.584L223.796 135.04Z" fill="white"/>
</svg>
