<svg width="131" height="90" viewBox="0 0 131 90" fill="none" xmlns="http://www.w3.org/2000/svg">
<path d="M101.728 10.3451C100.63 11.0447 99.7818 12.0545 99.2979 13.2371C98.8141 14.4196 98.7183 15.7177 99.0237 16.9547C99.3627 18.2572 100.118 19.4229 101.182 20.2855C102.246 21.1481 103.565 21.6636 104.95 21.7585C106.247 21.8057 107.526 21.4554 108.605 20.7576C109.684 20.0598 110.507 19.0502 110.958 17.8727C111.409 16.6952 111.463 15.4101 111.115 14.2006C110.766 12.9912 110.031 11.9193 109.015 11.1378C106.989 9.58816 103.872 8.95639 101.728 10.3451Z" fill="#E52D52"/>
<g opacity="0.3">
<path opacity="0.3" d="M101.728 10.3451C100.63 11.0447 99.7818 12.0545 99.2979 13.2371C98.8141 14.4196 98.7183 15.7177 99.0237 16.9547C99.3627 18.2572 100.118 19.4229 101.182 20.2855C102.246 21.1481 103.565 21.6636 104.95 21.7585C106.247 21.8057 107.526 21.4554 108.605 20.7576C109.684 20.0598 110.507 19.0502 110.958 17.8727C111.409 16.6952 111.463 15.4101 111.115 14.2006C110.766 12.9912 110.031 11.9193 109.015 11.1378C106.989 9.58816 103.872 8.95639 101.728 10.3451Z" fill="white"/>
</g>
<path d="M102.597 21.1147C102.913 20.7073 103.189 20.2724 103.422 19.8155C103.684 19.2654 103.816 18.6655 103.807 18.0598C103.798 17.4541 103.649 16.858 103.371 16.3154C103.093 15.7728 102.692 15.2974 102.199 14.9243C101.706 14.5512 101.132 14.2898 100.521 14.1594C100.005 14.0654 99.4812 14.0136 98.9561 14.0044C99.0888 13.9421 99.2336 13.9075 99.3811 13.9031C99.7771 13.8541 100.179 13.8682 100.57 13.9448C101.232 14.0526 101.858 14.3101 102.398 14.6963C102.937 15.0826 103.375 15.5867 103.675 16.1675C103.976 16.7484 104.13 17.3897 104.125 18.0391C104.121 18.6886 103.958 19.3278 103.65 19.9048C103.476 20.2524 103.245 20.5704 102.966 20.8465C102.744 21.0432 102.615 21.1267 102.597 21.1147Z" fill="#FAFAFA"/>
<path d="M110.691 18.5341C110.54 18.5533 110.386 18.539 110.241 18.4924C109.837 18.4138 109.445 18.2835 109.077 18.105C107.844 17.5003 106.865 16.5025 106.305 15.28C105.747 14.0574 105.63 12.6888 105.972 11.394C106.073 11.0083 106.218 10.6346 106.403 10.2795C106.539 10.0292 106.631 9.90403 106.65 9.90999C106.668 9.91595 106.391 10.506 106.194 11.4417C105.931 12.6879 106.071 13.9823 106.594 15.1489C107.133 16.3107 108.039 17.277 109.182 17.9083C109.673 18.1423 110.177 18.3512 110.691 18.5341Z" fill="#FAFAFA"/>
<path d="M67.232 24.8994C68.2115 24.0471 68.9014 22.867 68.3901 21.7227L68.3593 21.6333C68.2329 21.3352 68.0418 21.0669 67.7988 20.8466C67.2585 20.4029 66.6057 20.1067 65.9076 19.9883C63.6284 19.5056 61.2199 20.036 58.9283 19.601C59.0834 20.9185 59.5333 22.1876 60.2466 23.32C60.9677 24.4579 62.0903 25.3047 63.4067 25.704C64.0632 25.8883 64.7568 25.9113 65.4248 25.7708C66.0927 25.6303 66.7139 25.3308 67.232 24.8994Z" fill="#455A64"/>
<path d="M68.2977 25.7755C68.2237 24.6908 67.7802 23.6299 66.7207 23.3498H66.6406C66.3678 23.2784 66.083 23.2601 65.8029 23.2962C65.2136 23.411 64.6669 23.6765 64.2197 24.065C62.6797 25.257 61.7557 27.1165 60.265 28.3622C61.2523 28.9574 62.3626 29.3358 63.5175 29.4708C64.6814 29.606 65.8566 29.3287 66.8254 28.69C67.3029 28.3619 67.6879 27.9232 67.9451 27.4141C68.2023 26.905 68.3235 26.3417 68.2977 25.7755Z" fill="#455A64"/>
<path d="M68.2608 25.6205C68.0138 25.6372 67.766 25.5994 67.5363 25.5098C67.3067 25.4202 67.1011 25.2813 66.9351 25.1034C66.7692 24.9256 66.6472 24.7136 66.5784 24.4834C66.5097 24.2532 66.496 24.0109 66.5383 23.7749C66.5807 23.5388 66.678 23.3152 66.8229 23.1209C66.9678 22.9266 67.1565 22.7667 67.3747 22.6534C67.5928 22.5401 67.8348 22.4763 68.0823 22.4668C68.3297 22.4573 68.5761 22.5025 68.8029 22.5988" fill="#455A64"/>
<path d="M43.6946 64.1638C39.05 65.5823 34.0481 61.7798 32.6867 57.2741C31.3254 52.7683 32.6867 47.893 34.393 43.4826C36.0994 39.0722 38.2307 34.6857 38.4833 29.9773C38.7666 24.5715 36.2041 18.9036 31.4054 16.1203C26.6068 13.3369 19.7014 14.0879 16.2087 18.3374C12.716 22.5869 14.0589 29.8938 19.1286 32.1765C17.7734 31.4494 16.3504 30.6984 14.8166 30.6507C13.2827 30.6031 11.5579 31.503 11.2869 32.9811C11.0158 34.4592 12.1739 35.7763 13.4059 36.6584C14.6379 37.5405 16.0794 38.2617 16.8432 39.5431C18.0444 41.5635 17.1204 44.0786 16.5475 46.3434C15.5285 50.4067 15.7675 54.6703 17.235 58.6031C18.7025 62.5358 21.3334 65.9639 24.8001 68.4603C28.2669 70.9568 32.4161 72.4111 36.731 72.6423C41.0459 72.8734 45.3358 71.8711 49.0662 69.7603" fill="#E52D52"/>
<g opacity="0.3">
<path opacity="0.3" d="M42.4812 64.5155C41.9206 64.9267 41.0952 64.3367 40.4176 64.5155C40.1818 64.6331 39.9774 64.8019 39.8203 65.0087C39.6632 65.2155 39.5577 65.4546 39.5121 65.7075C39 66.9246 38.8444 68.2546 39.0624 69.5517C39.1833 70.1958 39.4924 70.793 39.953 71.2725C40.4137 71.752 41.0067 72.0938 41.6619 72.2575C41.8312 72.3087 42.0124 72.3099 42.1825 72.2611C42.3525 72.2123 42.5037 72.1156 42.6167 71.9833C42.6945 71.8173 42.7243 71.634 42.7029 71.4529L42.5181 64.8492" fill="black"/>
</g>
<path d="M62.5505 89.1124L58.9777 68.5325L73.2565 64.885C76.1271 65.6419 78.665 67.9008 80.0325 70.9046C81.4 73.9085 80.821 79.0162 79.743 82.181C82.5915 82.0908 85.4379 82.4122 88.1884 83.1345C90.8433 84.0107 93.412 85.8583 93.024 89.0171L62.5505 89.1124Z" fill="#E52D52"/>
<path d="M62.5505 89.1124L58.9777 68.5325L73.2565 64.885C76.1271 65.6419 78.665 67.9008 80.0325 70.9046C81.4001 73.9085 80.821 79.0162 79.743 82.181C82.5915 82.0908 85.4379 82.4122 88.1884 83.1345C90.8433 84.0107 93.449 85.9596 93.0609 89.0945L62.5505 89.1124Z" fill="#E52D52"/>
<g opacity="0.3">
<path opacity="0.3" d="M62.5505 89.1124L58.9777 68.5325L73.2565 64.885C76.1271 65.6419 78.665 67.9008 80.0325 70.9046C81.4001 73.9085 80.821 79.0162 79.743 82.181C82.5915 82.0908 85.4379 82.4122 88.1884 83.1345C90.8433 84.0107 93.449 85.9596 93.0609 89.0945L62.5505 89.1124Z" fill="black"/>
</g>
<path d="M109.89 47.2315L121.083 37.63L123.122 41.802C123.122 41.802 112.151 60.0515 110.253 59.7893C108.356 59.527 103.2 52.3095 97.3667 55.4623L93.0547 50.736L99.5843 37.624L109.878 47.2315" fill="#E52D52"/>
<path d="M49.2879 89.1124H84.0242C83.8579 81.3107 77.9874 82.1749 77.9874 82.1749H69.9794C74.3714 79.791 75.6466 73.6939 75.6466 73.6939C84.0303 71.5185 90.7386 61.899 90.7386 61.899L97.2743 48.8407L97.6131 53.555L100.632 47.595C103.477 37.0458 94.952 21.6035 94.952 21.6035L101.66 21.7882C101.66 18.3374 97.299 18.3374 94.1143 17.6162C90.9295 16.8951 92.1061 12.8959 92.1061 12.8959C92.1061 12.8959 99.6459 13.8078 102.664 10.357C105.683 6.90613 104.174 2.01297 104.174 2.01297L93.2765 3.28246C91.7673 1.64942 86.4019 -0.704792 82.8784 0.201128C79.3549 1.10705 72.8191 6.00618 71.6487 8.72394C70.4783 11.4417 69.967 20.1552 69.3695 27.5933C68.772 35.0314 63.9303 39.9245 59.5751 44.6448C55.22 49.3652 48.8136 52.6491 44.44 57.727C43.0786 59.3183 42.401 62.054 42.1177 65.0697C41.4069 72.8604 43.46 80.6529 47.9389 87.1635L49.2879 89.1124Z" fill="#E52D52"/>
<path d="M97.989 43.1549C97.989 43.4231 98.1984 83.1286 98.1984 83.1286C98.1984 83.1286 105.985 83.7246 107.05 89.0886H93.0672C93.0672 89.0886 84.4801 64.7241 81.8313 62.662C79.669 61.1328 77.3486 59.8245 74.9075 58.7582L78.8129 57.1669L76.1456 53.9008C76.1456 53.9008 77.3776 55.2775 78.9916 53.0425" fill="#E52D52"/>
<path d="M81.3507 4.60559C81.3742 4.70928 81.3846 4.81536 81.3815 4.92147C81.3815 5.16583 81.3815 5.46382 81.3815 5.82738C81.3815 6.66178 81.3815 7.79419 81.3815 9.16499C81.3815 10.5358 81.3815 12.2642 81.3815 14.1118C81.3992 15.0926 81.3602 16.0735 81.2645 17.0501C81.1734 18.1158 80.8634 19.1532 80.3528 20.1016C79.8065 21.063 78.8971 21.7827 77.8149 22.1101C76.8031 22.3875 75.7276 22.3563 74.7349 22.0207C73.8422 21.7352 73.0403 21.2324 72.4064 20.5605C71.867 19.971 71.4488 19.2873 71.1744 18.546C70.792 17.479 70.6554 16.3439 70.774 15.2204C70.8 14.9176 70.8473 14.6169 70.9157 14.3204C70.9301 14.2151 70.9613 14.1125 71.0081 14.0164C71.0389 14.0164 70.9403 14.4455 70.8972 15.2084C70.8295 16.3105 70.9973 17.4142 71.39 18.4507C71.6612 19.1582 72.0689 19.8094 72.5912 20.3698C73.2028 20.9976 73.9674 21.4669 74.815 21.7346C75.7451 22.0369 76.7479 22.0598 77.6917 21.8002C78.6965 21.4939 79.5397 20.8232 80.0448 19.9288C80.5339 19.0165 80.8331 18.0202 80.9257 16.9964C81.0226 16.0319 81.0657 15.063 81.055 14.0939C81.0858 12.2403 81.1105 10.5716 81.129 9.14711C81.1474 7.72267 81.1844 6.64391 81.2029 5.8095C81.2029 5.44594 81.2337 5.14795 81.2398 4.90359C81.2617 4.79959 81.2991 4.69921 81.3507 4.60559Z" fill="#263238"/>
<path d="M100.89 2.45995C100.81 3.0101 100.951 3.56901 101.285 4.02147C101.622 4.42873 102.064 4.74317 102.566 4.93335C103.181 5.26292 103.898 5.36661 104.586 5.22539C104.686 4.40096 104.653 3.56653 104.488 2.75199C104.478 2.6243 104.44 2.5001 104.377 2.38724C104.315 2.27437 104.229 2.17532 104.124 2.09638C103.99 2.03379 103.842 2.00315 103.693 2.00699C102.736 1.96587 101.781 2.12021 100.89 2.45995Z" fill="#263238"/>
<path d="M118.785 40.2762C119.986 38.7921 121.101 37.4213 122.222 36.7002C123.39 35.8845 124.799 35.456 126.239 35.4784C126.954 35.4962 127.653 35.6858 128.274 36.0302C128.894 36.3745 129.416 36.8629 129.793 37.4511C130.153 38.0503 130.297 38.7478 130.203 39.4347C130.109 40.1216 129.783 40.7591 129.276 41.2476C128.414 41.9439 127.318 42.3106 126.196 42.2787C125.591 42.3001 124.996 42.1238 124.508 41.7781C124.256 41.549 124.091 41.2445 124.039 40.9137C123.988 40.5829 124.053 40.245 124.224 39.9543L122.943 42.1416L118.785 40.2762Z" fill="#E52D52"/>
<path d="M97.9889 80.7028C97.9026 80.7028 97.878 72.2098 97.9334 61.7441C97.9889 51.2783 98.1121 42.7913 98.1983 42.7913C98.2845 42.7913 98.3153 51.2783 98.2537 61.75C98.1921 72.2217 98.0751 80.7028 97.9889 80.7028Z" fill="#263238"/>
<path d="M82.0899 89.1124C82.0406 89.1124 82.1269 88.7012 82.0899 88.0575C82.041 87.2212 81.7516 86.4147 81.2541 85.7292C80.7567 85.0436 80.0711 84.5061 79.2748 84.1775C78.6588 83.9212 78.2399 83.8617 78.2522 83.814C78.6281 83.7671 79.01 83.8229 79.3549 83.9749C80.229 84.2668 80.9858 84.8178 81.5177 85.5497C82.0496 86.2815 82.3296 87.1569 82.3178 88.0515C82.3431 88.4187 82.2643 88.7855 82.0899 89.1124Z" fill="#263238"/>
<path d="M59.9386 64.7718C60.0329 64.7196 60.1319 64.6757 60.2343 64.6407C60.5213 64.5205 60.8154 64.4171 61.1152 64.3307C62.2143 64.0006 63.3532 63.8103 64.5032 63.7645C66.2232 63.6892 67.9399 63.9738 69.5359 64.599C71.5071 65.3523 73.2044 66.6523 74.4146 68.3359C75.025 69.2184 75.4557 70.2056 75.6836 71.2444C75.8792 72.2144 75.9104 73.2088 75.776 74.1886C75.5555 75.843 74.9212 77.4203 73.928 78.7838C73.2353 79.6731 72.4441 80.4865 71.5687 81.2095C71.2668 81.4717 71.0204 81.6625 70.8541 81.8055C70.7743 81.8778 70.6853 81.9398 70.5892 81.9902C70.6548 81.9057 70.7291 81.8278 70.811 81.7578L71.4824 81.132C72.315 80.3827 73.072 79.5585 73.7432 78.6705C74.6828 77.3234 75.2762 75.7786 75.4741 74.1648C75.5953 73.2177 75.56 72.2581 75.3694 71.3218C75.146 70.321 74.7279 69.3704 74.1374 68.5206C72.9603 66.8858 71.3163 65.6183 69.4065 64.8731C67.8457 64.2493 66.1666 63.9508 64.4785 63.997C63.3406 64.0212 62.2096 64.1752 61.109 64.4559C60.3698 64.6466 59.9509 64.8016 59.9386 64.7718Z" fill="#263238"/>
<path d="M86.328 69.8259C86.328 69.8259 86.2788 69.7722 86.1987 69.659L85.8783 69.1524C85.6073 68.7113 85.2192 68.0557 84.7511 67.2154C84.2829 66.375 83.7285 65.3618 83.1433 64.1817C82.4722 62.88 81.8978 61.5336 81.4247 60.1528L81.7019 60.1826C81.3199 60.868 80.9257 61.5891 80.5253 62.3341L80.3775 62.5964L80.2419 62.3282C79.7041 61.2444 79.4907 60.0366 79.6259 58.8416C79.6668 58.4642 79.7431 58.0911 79.8539 57.727L80.1311 57.8641L78.1044 60.421L77.8888 60.6951L77.8334 60.3554C77.335 57.414 77.4081 54.4084 78.049 51.4929C78.2328 50.6468 78.4714 49.8127 78.7635 48.9957C78.8621 48.7096 78.9545 48.495 79.0099 48.352C79.0364 48.275 79.0716 48.2011 79.1147 48.1315C79.0528 48.4369 78.9684 48.7377 78.8621 49.0314C78.6896 49.6274 78.4555 50.4499 78.2461 51.5287C77.6789 54.4244 77.6435 57.3941 78.1414 60.3018L77.8642 60.2362L79.8847 57.6734L80.4021 57.0119L80.1619 57.8105C80.0613 58.1578 79.9912 58.5127 79.9524 58.8714C79.8358 60.0137 80.0491 61.165 80.5684 62.197H80.2912L81.4801 60.0515L81.6464 59.7415L81.7511 60.0753C82.2149 61.4439 82.7705 62.7818 83.4143 64.0804C83.9811 65.2724 84.5108 66.2916 84.9543 67.1379L86.0077 69.1166C86.1288 69.3467 86.2358 69.5835 86.328 69.8259Z" fill="#263238"/>
<path d="M105.098 89.1125C105.048 89.1125 105.005 88.7072 104.783 88.0873C104.506 87.2847 104.029 86.5599 103.396 85.976C102.763 85.3922 101.991 84.9672 101.149 84.7378C100.502 84.559 100.077 84.5352 100.077 84.4875C100.45 84.408 100.839 84.4223 101.204 84.5292C102.111 84.7156 102.946 85.1405 103.619 85.757C104.289 86.3747 104.767 87.1612 104.999 88.0278C105.126 88.3756 105.159 88.7486 105.098 89.1125Z" fill="#263238"/>
<path d="M122.974 36.3903C122.809 36.5769 122.623 36.7449 122.42 36.8909L120.824 38.1663C119.5 39.2391 117.67 40.7232 115.681 42.3979C113.691 44.0727 111.911 45.6223 110.629 46.7487L109.12 48.0719C108.943 48.245 108.747 48.3989 108.535 48.5308C108.679 48.3301 108.846 48.1461 109.034 47.9825C109.367 47.6487 109.865 47.1659 110.488 46.5878C111.72 45.3958 113.488 43.8462 115.477 42.1655C117.467 40.4848 119.333 39.0246 120.695 37.9935C121.379 37.4809 121.927 37.0697 122.333 36.8015C122.533 36.6445 122.747 36.5068 122.974 36.3903Z" fill="#263238"/>
<path d="M126.503 39.7278C126.473 39.7636 126.319 39.6444 126.048 39.549C125.695 39.4276 125.31 39.4276 124.957 39.549C124.61 39.6811 124.319 39.9226 124.132 40.2344C123.984 40.4788 123.947 40.6635 123.898 40.6576C123.849 40.6516 123.812 40.4549 123.929 40.145C124.004 39.9404 124.126 39.7544 124.285 39.6006C124.443 39.4468 124.635 39.3289 124.847 39.2554C125.058 39.1819 125.284 39.1546 125.507 39.1755C125.731 39.1964 125.947 39.2649 126.14 39.3762C126.436 39.5192 126.534 39.704 126.503 39.7278Z" fill="#263238"/>
<g opacity="0.3">
<path opacity="0.3" d="M97.9827 54.9795L101.395 54.5086C101.631 54.4973 101.859 54.4184 102.048 54.2822C102.35 54.014 102.282 53.5431 102.19 53.1617C101.342 49.7959 100.02 46.559 98.2599 43.5422C97.9457 47.5176 97.8287 51.5108 97.9211 55.498" fill="black"/>
</g>
<g opacity="0.3">
<path opacity="0.3" d="M78.357 48.7156C77.0511 50.7886 76.1764 53.0886 75.7821 55.4861C75.5939 56.6845 75.6607 57.9074 75.9785 59.0799C76.2963 60.2523 76.8583 61.3496 77.6301 62.3044C78.4775 63.181 79.4381 63.9482 80.4883 64.5871L83.439 66.5539C83.5704 64.3945 82.8206 62.2715 81.3507 60.6415C81.1228 61.2375 80.901 61.8633 80.6731 62.4713C80.1865 61.8803 79.8436 61.1909 79.6698 60.4543C79.496 59.7176 79.4957 58.9526 79.669 58.2158L77.6362 60.3435C77.6189 56.4607 77.9986 52.5857 78.7697 48.7752" fill="black"/>
</g>
<g opacity="0.3">
<path opacity="0.3" d="M70.885 15.8819C70.9466 17.7414 71.2238 19.8096 72.351 21.3234C72.8939 22.0965 73.6404 22.7152 74.5133 23.1155C75.3862 23.5157 76.3538 23.6831 77.316 23.6001C79.6568 23.2723 81.3446 21.0969 81.8005 18.8321C82.2563 16.5673 81.7512 14.2727 81.2399 12.0377C81.3631 14.1237 81.474 16.2753 80.7287 18.2361C79.9833 20.197 78.1661 21.9373 76.0039 21.9373C75.2529 21.9138 74.5186 21.7165 73.8627 21.3618C73.2067 21.0072 72.6482 20.5056 72.234 19.899C71.3347 18.7357 70.8602 17.3165 70.885 15.864" fill="black"/>
</g>
<g opacity="0.3">
<path opacity="0.3" d="M68.1376 25.5192C69.1848 31.0739 75.1415 35.0552 80.3713 37.6299C85.6012 40.2046 91.4224 41.5099 97.2621 42.1714C98.4063 42.3292 99.5632 42.383 100.718 42.3324C101.42 42.2787 102.276 42.0105 102.369 41.337C102.461 40.6635 101.636 40.145 100.933 39.8828C93.3352 37.027 85.9287 33.7148 78.7574 29.9653C75.5173 28.2667 72.2525 26.4608 68.6427 25.7337" fill="black"/>
</g>
<path d="M68.427 21.9492C68.1205 21.9977 67.8178 22.0674 67.5215 22.1578C67.1905 22.289 66.9022 22.5042 66.6869 22.7807C66.4717 23.0572 66.3374 23.3847 66.2983 23.7287C66.2592 24.0728 66.3167 24.4207 66.4648 24.7358C66.6128 25.0509 66.846 25.3215 67.1396 25.5192C67.4078 25.6675 67.6856 25.7989 67.9712 25.9126C67.637 25.9674 67.2939 25.8924 67.0164 25.704C66.6974 25.5244 66.4321 25.2676 66.2464 24.959C66.0206 24.5743 65.9258 24.1306 65.9756 23.6908C66.0253 23.2511 66.2171 22.8377 66.5236 22.5094C66.7769 22.2491 67.0951 22.0562 67.4476 21.9492C67.6022 21.8844 67.7689 21.851 67.9373 21.851C68.1058 21.851 68.2725 21.8844 68.427 21.9492Z" fill="#263238"/>
<path d="M68.2793 24.4047C68.1931 24.4047 68.0083 23.8862 67.5771 23.3379C67.1459 22.7896 66.6715 22.4677 66.7208 22.3843C66.7701 22.3008 67.3676 22.5392 67.8358 23.1531C68.304 23.767 68.3656 24.3988 68.2793 24.4047Z" fill="#263238"/>
<path d="M67.848 23.5703C67.9096 23.6299 67.6324 23.9696 67.1704 24.2378C66.7084 24.506 66.2711 24.5835 66.2465 24.5C66.2218 24.4166 66.5729 24.2259 67.0041 23.9696C67.4353 23.7133 67.7741 23.5047 67.848 23.5703Z" fill="#263238"/>
<path d="M65.5935 24.1365C65.257 24.167 64.9247 24.2309 64.6017 24.3272C63.8519 24.6511 63.2022 25.1585 62.7168 25.7994C61.9862 26.711 61.1718 27.5568 60.2836 28.3264C60.9289 27.355 61.6629 26.4415 62.4765 25.5967C62.99 24.9146 63.7053 24.3993 64.5278 24.1186C64.6974 24.0514 64.8793 24.0184 65.0625 24.0214C65.2458 24.0245 65.4264 24.0637 65.5935 24.1365Z" fill="#263238"/>
<path d="M65.384 27.0927C65.3286 27.0212 65.7043 26.6814 66.0985 26.2166C66.4928 25.7517 66.77 25.3404 66.85 25.3762C66.9301 25.412 66.77 25.9186 66.3449 26.4133C65.9199 26.9079 65.384 27.1583 65.384 27.0927Z" fill="#263238"/>
<path d="M65.0267 25.8887C65.0267 25.8053 65.347 25.6562 65.7659 25.4894C66.1848 25.3225 66.5421 25.2033 66.5914 25.2808C66.6406 25.3583 66.3326 25.6026 65.8891 25.7814C65.4456 25.9602 65.0452 25.9721 65.0267 25.8887Z" fill="#263238"/>
<path d="M63.8994 22.3425C63.8994 22.259 64.46 22.0743 65.193 22.1756C65.926 22.2769 66.425 22.6047 66.3942 22.6703C66.3634 22.7358 65.8275 22.5689 65.1622 22.4855C64.4969 22.4021 63.9117 22.4319 63.8994 22.3425Z" fill="#263238"/>
<path d="M64.7681 21.0611C64.7681 20.9776 65.3841 21.0134 65.9077 21.4663C66.4313 21.9193 66.5237 22.4915 66.4559 22.5034C66.3881 22.5153 66.1541 22.0862 65.6921 21.6988C65.2301 21.3114 64.7188 21.1505 64.7681 21.0611Z" fill="#263238"/>
<path d="M68.1376 25.5192C69.4312 28.1595 71.3469 29.6912 73.6816 31.4792C80.6934 37.0462 89.2302 40.5154 98.2476 41.4622C99.0189 41.5706 99.8034 41.5565 100.57 41.4205C100.951 41.3506 101.312 41.2041 101.63 40.9905C101.948 40.777 102.217 40.5011 102.418 40.1808C102.892 39.3464 102.707 38.3213 102.486 37.3975C101.85 34.6791 101.027 32.005 100.022 29.3932C99.9549 29.1755 99.8439 28.9729 99.6953 28.7972C99.2086 28.3085 99.03 28.3204 98.3647 28.5588C93.5537 30.2693 87.5169 29.715 82.5889 28.3263C77.6609 26.9377 73.2935 25.0245 68.2053 24.4047L68.1376 25.5192Z" fill="#455A64"/>
<path d="M100.669 31.354L100.324 31.4136L99.3442 31.5746C98.9191 31.6461 98.3955 31.7295 97.7857 31.7831C97.1759 31.8368 96.4798 31.9381 95.7036 31.9679C94.9275 31.9977 94.0897 32.0692 93.178 32.0573C92.2663 32.0454 91.2931 32.0573 90.2705 31.9977C88.0557 31.8585 85.8534 31.5718 83.6793 31.1395C81.5096 30.688 79.3751 30.0906 77.2914 29.3515C76.3366 28.9879 75.4434 28.6601 74.6056 28.2787C73.7679 27.8972 73.0163 27.5575 72.3326 27.2118C71.6488 26.8662 71.039 26.5264 70.4846 26.2284C69.9302 25.9304 69.5051 25.6682 69.1417 25.4298L68.3101 24.9053L68.0267 24.7146L68.3286 24.8815L69.1725 25.394C69.5359 25.6205 69.9856 25.8887 70.5215 26.1688C71.0574 26.449 71.655 26.8125 72.3695 27.1344C73.0841 27.4562 73.811 27.8436 74.6487 28.1833C75.4865 28.523 76.3797 28.8866 77.3345 29.2442C79.4128 29.9806 81.541 30.578 83.7039 31.0322C85.8744 31.4599 88.0725 31.7447 90.2828 31.8845C91.2992 31.9262 92.2663 31.9858 93.178 31.962C94.0897 31.9381 94.9275 31.9321 95.6975 31.8845C96.4675 31.8368 97.1635 31.7772 97.7734 31.7176C98.3832 31.658 98.913 31.5984 99.338 31.5328L100.324 31.3957C100.545 31.36 100.669 31.354 100.669 31.354Z" fill="#E0E0E0"/>
<path d="M102.289 36.122C102.289 36.122 101.771 36.2234 100.816 36.3604C99.4723 36.5404 98.1193 36.6498 96.763 36.6882C87.7084 36.9525 78.8535 34.0826 71.7904 28.5946C70.7301 27.7762 69.7183 26.9006 68.7597 25.9722C68.0821 25.3106 67.731 24.9232 67.731 24.9232L68.0082 25.1855C68.193 25.3523 68.4455 25.6205 68.7905 25.9364C69.4804 26.586 70.503 27.492 71.8705 28.529C78.9447 33.9565 87.762 36.8121 96.7877 36.5988C98.1409 36.5702 99.4917 36.4747 100.835 36.3127C101.315 36.2591 101.679 36.1935 101.931 36.1637L102.289 36.122Z" fill="#E0E0E0"/>
<path d="M72.0184 29.9475C72.0184 29.9475 72.0184 29.8819 71.9629 29.7627C71.93 29.5955 71.9094 29.4262 71.9013 29.2561C71.8662 28.6918 71.9287 28.1258 72.0861 27.5813C72.2472 27.0369 72.499 26.5216 72.8315 26.0556C72.9342 25.9162 73.0453 25.7829 73.1642 25.6562C73.2504 25.5668 73.2997 25.5251 73.3059 25.5311C73.312 25.537 73.1457 25.7456 72.9116 26.1271C72.6031 26.5962 72.3666 27.1061 72.2093 27.6409C72.0571 28.1747 71.9824 28.7263 71.9876 29.28C71.9937 29.7031 72.0368 29.9475 72.0184 29.9475Z" fill="#E0E0E0"/>
<path d="M69.5051 27.8138C69.4796 27.6599 69.4796 27.5029 69.5051 27.3489C69.5671 26.9777 69.6703 26.614 69.8131 26.2642C69.9559 25.9163 70.1377 25.5845 70.3552 25.2748C70.4392 25.14 70.5453 25.0192 70.6693 24.9172C70.3963 25.3684 70.1495 25.834 69.9302 26.3119C69.7627 26.8054 69.6208 27.3066 69.5051 27.8138Z" fill="#E0E0E0"/>
<path d="M75.3018 32.6474C75.3778 32.3469 75.4704 32.0504 75.5789 31.7594C76.0355 30.3326 76.2944 28.8536 76.3489 27.3609C76.3489 26.7649 76.3489 26.4312 76.3859 26.4312C76.4086 26.5127 76.419 26.597 76.4167 26.6815C76.4167 26.8424 76.4167 27.0748 76.4167 27.3609C76.4132 28.1121 76.3452 28.8616 76.2134 29.6019C76.0841 30.3429 75.8925 31.0724 75.6405 31.7832C75.542 32.0574 75.4557 32.2719 75.388 32.4209C75.3651 32.4984 75.3363 32.5741 75.3018 32.6474Z" fill="#E0E0E0"/>
<path d="M80.784 36.1757C80.7365 36.0755 80.6973 35.9719 80.6669 35.8657C80.5991 35.6631 80.5191 35.3651 80.4328 34.9956C80.0046 33.0503 80.0723 31.0334 80.6299 29.119C80.7088 28.8296 80.8055 28.545 80.9195 28.2667C80.951 28.1621 80.9966 28.062 81.055 27.9688C81.0332 28.0763 81.0023 28.182 80.9626 28.2846C80.8948 28.4873 80.8086 28.7793 80.7162 29.1429C80.4685 30.0951 80.326 31.07 80.2912 32.0513C80.2597 33.0321 80.3381 34.0133 80.5252 34.9777C80.593 35.3472 80.6608 35.6452 80.7162 35.8538C80.7473 35.9592 80.77 36.0668 80.784 36.1757Z" fill="#E0E0E0"/>
<path d="M86.8024 38.8875C86.7397 38.7725 86.6921 38.6504 86.6607 38.5239C86.5807 38.2855 86.4759 37.9279 86.3589 37.4988C86.0586 36.3609 85.8425 35.2037 85.7121 34.0361C85.5878 32.8681 85.5487 31.693 85.5951 30.5197C85.5951 30.0727 85.6443 29.7091 85.6751 29.4588C85.683 29.3288 85.6994 29.1994 85.7244 29.0714C85.7405 29.2001 85.7405 29.3301 85.7244 29.4588C85.7244 29.7091 85.7244 30.0548 85.6875 30.5256C85.6392 32.8636 85.8938 35.1982 86.4451 37.475C86.5499 37.916 86.6423 38.2677 86.71 38.506C86.7499 38.631 86.7808 38.7584 86.8024 38.8875Z" fill="#E0E0E0"/>
<path d="M91.5948 29.578C91.6603 29.7185 91.7058 29.8668 91.7303 30.019C91.8065 30.439 91.8065 30.8686 91.7303 31.2885C91.6503 31.819 91.4531 32.4328 91.3484 33.1242C91.2658 33.4894 91.2598 33.867 91.3307 34.2345C91.4016 34.602 91.548 34.952 91.7612 35.2639C92.0345 35.5535 92.3379 35.8152 92.6667 36.0446C92.9863 36.2695 93.2306 36.5804 93.3689 36.9386C93.5146 37.5659 93.4182 38.223 93.0979 38.7862C92.87 39.2749 92.6728 39.6564 92.5804 39.9424C92.488 40.2285 92.4634 40.3835 92.4511 40.3835C92.4592 40.228 92.4861 40.074 92.5312 39.9246C92.666 39.5173 92.8286 39.1191 93.0178 38.7326C93.3169 38.1837 93.4022 37.5492 93.258 36.9446C93.1206 36.6104 92.8877 36.321 92.5866 36.1102C92.2497 35.877 91.9399 35.6092 91.6626 35.3115C91.438 34.9867 91.2839 34.6211 91.2098 34.2369C91.1357 33.8527 91.143 33.4579 91.2314 33.0765C91.3484 32.3732 91.5517 31.7653 91.6441 31.2468C91.7309 30.8371 91.7516 30.417 91.7057 30.0012C91.6441 29.733 91.5825 29.578 91.5948 29.578Z" fill="#E0E0E0"/>
<path d="M100.003 41.5099C100.171 41.4316 100.319 41.3175 100.434 41.1761C100.573 40.9714 100.663 40.7401 100.699 40.4982C100.735 40.2563 100.716 40.0097 100.644 39.7755C100.368 39.0942 99.9215 38.49 99.3442 38.0173C99.0255 37.7025 98.752 37.3477 98.5311 36.9624C98.3029 36.5434 98.1351 36.0963 98.0321 35.6333C97.8572 34.7431 97.7379 33.8435 97.6748 32.9394C97.6119 32.2089 97.4504 31.4896 97.1944 30.7997C97.015 30.3374 96.7522 29.9096 96.4182 29.5362C96.1718 29.2799 96.0055 29.1667 96.0116 29.1548C96.1723 29.2559 96.3211 29.3739 96.4552 29.5064C96.8108 29.8719 97.0891 30.3011 97.2744 30.7699C97.5503 31.4622 97.7245 32.1884 97.7919 32.9275C97.8621 33.8253 97.9834 34.7186 98.1553 35.6035C98.3385 36.485 98.7814 37.2964 99.4304 37.9398C100.012 38.4209 100.459 39.0357 100.73 39.7278C100.803 39.9724 100.818 40.2299 100.773 40.4808C100.728 40.7317 100.625 40.9694 100.471 41.1761C100.384 41.2844 100.272 41.372 100.145 41.4324C100.053 41.4979 100.009 41.5158 100.003 41.5099Z" fill="#E0E0E0"/>
<path d="M66.3574 25.6146C66.3307 25.7029 66.2913 25.7871 66.2404 25.8649C66.1186 26.0747 65.9784 26.2741 65.8215 26.4609C65.3038 27.1144 64.6293 27.6361 63.8564 27.9807C63.0847 28.3222 62.2402 28.4815 61.3924 28.4456C61.1372 28.4341 60.8836 28.4002 60.6347 28.3442C60.4561 28.3085 60.3575 28.2787 60.3637 28.2667C60.3698 28.2548 60.7579 28.3442 61.3986 28.3561C62.2315 28.3721 63.0573 28.205 63.8138 27.8674C64.5703 27.5298 65.2378 27.0305 65.766 26.4072C66.1603 25.9543 66.3327 25.6026 66.3574 25.6146Z" fill="#E0E0E0"/>
<path d="M64.7249 29.274C64.7898 28.5305 64.6126 27.7859 64.2183 27.1447C63.8239 26.5034 63.2321 25.9976 62.5258 25.698C62.5258 25.698 62.5935 25.698 62.7044 25.7397C62.8625 25.7959 63.0151 25.8657 63.1603 25.9483C63.6419 26.2229 64.0444 26.6102 64.3307 27.0747C64.6171 27.5393 64.778 28.066 64.7988 28.6065C64.8105 28.7672 64.8105 28.9285 64.7988 29.0893C64.768 29.2144 64.768 29.28 64.7249 29.274Z" fill="#E0E0E0"/>
<path d="M67.2321 28.2489C67.2321 28.2489 67.2321 27.9449 67.0965 27.4741C66.9529 26.8634 66.6691 26.2917 66.266 25.8017C65.8629 25.3116 65.3509 24.9156 64.7681 24.6431C64.3184 24.4345 64.0104 24.3689 64.0166 24.351C64.0916 24.3499 64.1664 24.36 64.2383 24.3808C64.4322 24.427 64.6218 24.4888 64.805 24.5656C65.417 24.8235 65.9557 25.22 66.3758 25.7218C66.7864 26.2294 67.0671 26.8237 67.1951 27.4562C67.2312 27.653 67.2497 27.8524 67.2505 28.0522C67.252 28.1182 67.2458 28.1842 67.2321 28.2489Z" fill="#E0E0E0"/>
<path d="M63.2034 19.8929C63.0759 20.06 62.9033 20.1899 62.7045 20.2684C62.3595 20.4532 61.8236 20.5485 61.3123 20.7989C60.6957 21.1264 60.1712 21.595 59.7847 22.1637C59.8508 21.9693 59.9554 21.7891 60.0927 21.6333C60.398 21.2352 60.7943 20.9108 61.2507 20.6856C61.7928 20.4293 62.3287 20.3459 62.6675 20.1909C62.8527 20.1031 63.0317 20.0035 63.2034 19.8929Z" fill="#E0E0E0"/>
<path d="M66.616 20.0301C66.6047 20.1224 66.5798 20.2128 66.5421 20.2983C66.459 20.5345 66.3559 20.7637 66.2341 20.9837C65.4342 22.4643 64.0612 23.5785 62.4149 24.0829C62.17 24.1612 61.9186 24.219 61.6634 24.2557L61.3862 24.2855C61.3862 24.2855 61.7805 24.2021 62.3903 23.9994C63.986 23.4545 65.3232 22.3682 66.154 20.942C66.4559 20.4116 66.616 20.0241 66.616 20.0301Z" fill="#E0E0E0"/>
<path d="M65.6488 23.3916C65.6488 23.3916 65.5503 23.3558 65.3901 23.2664L64.7002 22.873L62.4272 21.6035L60.1295 20.3639L59.4334 19.9943C59.3463 19.9528 59.2637 19.9029 59.187 19.8453C59.2812 19.8712 59.3721 19.9072 59.4581 19.9526L60.1726 20.2864C60.7886 20.5844 61.5956 21.0016 62.4888 21.4784C63.382 21.9552 64.1828 22.4379 64.7495 22.7896L65.4148 23.2128C65.4992 23.264 65.5777 23.324 65.6488 23.3916Z" fill="#E0E0E0"/>
<path d="M51.832 52.6491C52.076 52.1008 52.418 51.5984 52.8423 51.165C53.1738 50.6709 53.5905 50.2355 54.0743 49.8777C53.8303 50.426 53.4883 50.9283 53.064 51.3617C52.7325 51.8559 52.3158 52.2913 51.832 52.6491Z" fill="#263238"/>
<path d="M52.6329 52.9114C52.5589 52.8577 52.8177 52.3869 53.1996 51.8565C53.5815 51.326 53.9573 50.9386 54.0312 50.9863C54.1051 51.0339 53.8525 51.5048 53.4645 52.0352C53.0764 52.5657 52.7068 52.9591 52.6329 52.9114Z" fill="#263238"/>
<path d="M54.6964 53.2332C54.604 53.2332 54.5855 52.7921 54.6533 52.2617C54.721 51.7312 54.8381 51.32 54.9305 51.3319C55.0229 51.3438 55.0352 51.773 54.9736 52.3034C54.912 52.8338 54.7826 53.2451 54.6964 53.2332Z" fill="#263238"/>
<path d="M71.0082 42.1238C70.831 41.6903 70.7573 41.2238 70.7926 40.7589C70.7231 40.2962 70.7588 39.8243 70.8973 39.3762C71.0748 39.8116 71.1485 40.2802 71.1129 40.747C71.1821 41.2078 71.1464 41.6777 71.0082 42.1238Z" fill="#263238"/>
<path d="M72.1599 42.4635C71.864 42.0519 71.6777 41.576 71.6175 41.0779C71.5573 40.5799 71.6252 40.0752 71.815 39.6086C71.8833 40.0848 71.9224 40.5644 71.932 41.045C72.0426 41.512 72.1187 41.9861 72.1599 42.4635Z" fill="#263238"/>
<path d="M73.8788 42.7555C73.48 42.3909 73.1643 41.9496 72.9522 41.4601C72.74 40.9705 72.636 40.4434 72.6468 39.9126C72.8945 40.3692 73.1007 40.8458 73.2628 41.337C73.5096 41.792 73.7157 42.2665 73.8788 42.7555Z" fill="#263238"/>
<path d="M86.8948 25.9245C86.8578 26.0019 86.2788 25.7695 85.8291 25.1616C85.3794 24.5537 85.3609 23.9279 85.4472 23.9279C85.5334 23.9279 85.6936 24.4404 86.0632 24.9828C86.4328 25.5251 86.9441 25.847 86.8948 25.9245Z" fill="#263238"/>
<path d="M87.7632 25.7219C87.7263 25.7994 87.2704 25.6504 86.8762 25.2392C86.482 24.8279 86.3711 24.375 86.4512 24.3452C86.5312 24.3154 86.7591 24.667 87.1103 25.0306C87.4614 25.3941 87.8063 25.6444 87.7632 25.7219Z" fill="#263238"/>
<path d="M89.5127 25.9305C89.4819 26.008 88.8043 25.7517 88.1945 25.1319C87.792 24.7924 87.5224 24.3295 87.4307 23.8207C87.5169 23.7789 87.8557 24.3451 88.4286 24.9173C89.0014 25.4895 89.562 25.853 89.5127 25.9305Z" fill="#263238"/>
<path d="M73.8171 13.343C73.7247 13.343 73.6076 12.9317 73.5583 12.4073C73.5091 11.8828 73.5583 11.4477 73.6138 11.4358C73.6692 11.4239 73.8171 11.847 73.8725 12.3775C73.9279 12.9079 73.9033 13.337 73.8171 13.343Z" fill="#263238"/>
<path d="M74.7471 12.9138C74.667 12.9496 74.4268 12.5204 74.3652 11.9364C74.3036 11.3523 74.4453 10.8933 74.5253 10.9053C74.6054 10.9172 74.6239 11.3642 74.6855 11.9066C74.7471 12.4489 74.8333 12.884 74.7471 12.9138Z" fill="#263238"/>
<path d="M75.7328 13.337C75.6589 13.3787 75.3201 12.9138 75.1599 12.2403C75.0102 11.8439 75.0102 11.409 75.1599 11.0126C75.2523 11.0126 75.3078 11.543 75.4618 12.1688C75.6158 12.7946 75.8191 13.2953 75.7328 13.337Z" fill="#263238"/>
<path d="M54.4869 74.7191C54.4965 73.6299 54.718 72.5522 55.1399 71.5424C55.1932 72.0861 55.1367 72.6347 54.9736 73.1575C54.9114 73.7025 54.7465 74.2317 54.4869 74.7191Z" fill="#263238"/>
<path d="M55.5281 73.7714C55.4418 73.7714 55.4418 73.3601 55.5281 72.8953C55.6143 72.4304 55.7621 72.0609 55.8484 72.0787C55.9346 72.0966 55.9346 72.484 55.8484 72.9489C55.7621 73.4138 55.5835 73.7833 55.5281 73.7714Z" fill="#263238"/>
<path d="M18.4202 42.1714C18.3278 42.1714 18.4202 41.0987 18.1861 39.8232C17.952 38.5478 17.4654 37.5882 17.5701 37.5465C18.0911 38.1893 18.4193 38.9584 18.5188 39.7696C18.7177 40.5635 18.6836 41.3953 18.4202 42.1714Z" fill="#263238"/>
<path d="M104.525 6.04189C104.535 6.22275 104.514 6.40396 104.463 6.57828C104.362 7.05906 104.222 7.53136 104.044 7.9908C103.782 8.67783 103.443 9.33529 103.034 9.95165C102.531 10.7184 101.86 11.3694 101.069 11.8588C100.267 12.3185 99.3931 12.6506 98.4818 12.8422C97.2556 13.1222 95.9949 13.2346 94.7365 13.176C94.5492 13.1778 94.3625 13.1537 94.1821 13.1045C94.1821 13.0508 94.9768 13.0747 96.2334 12.9436C96.9689 12.8681 97.6978 12.7406 98.414 12.5621C99.2801 12.3596 100.11 12.0342 100.878 11.5966C101.627 11.132 102.268 10.5234 102.763 9.8086C103.172 9.2158 103.522 8.58726 103.81 7.9312C104.321 6.78688 104.469 6.02997 104.525 6.04189Z" fill="#263238"/>
<path d="M88.8968 5.82739C88.6319 5.83599 88.3812 5.94494 88.1985 6.13074C88.0159 6.31654 87.9161 6.56432 87.9206 6.82067C87.925 7.07703 88.0334 7.32142 88.2223 7.50119C88.4113 7.68096 88.6656 7.78171 88.9306 7.78171C89.1956 7.78171 89.45 7.68096 89.639 7.50119C89.8279 7.32142 89.9363 7.07703 89.9407 6.82067C89.9452 6.56432 89.8453 6.31654 89.6627 6.13074C89.4801 5.94494 89.2294 5.83599 88.9645 5.82739" fill="#263238"/>
<path d="M85.0961 6.5128C84.9729 6.5426 84.8004 6.36976 84.6896 6.03004C84.5673 5.57698 84.5856 5.09911 84.7423 4.65607C84.8989 4.21302 85.187 3.82443 85.5704 3.53877C85.8723 3.33017 86.1187 3.30036 86.1864 3.40168C86.3466 3.61028 85.9031 4.18245 85.6444 4.95725C85.3857 5.73205 85.3795 6.43532 85.0961 6.5128Z" fill="#263238"/>
<path d="M64.5524 39.0365C62.6529 41.0426 60.245 42.5341 57.567 43.3635C58.0607 43.6827 58.6367 43.8622 59.2302 43.882C58.1864 44.5015 57.0404 44.943 55.8422 45.1872C56.6303 45.5564 57.5011 45.7296 58.3758 45.6913C59.2505 45.6529 60.1015 45.4041 60.8519 44.9675C61.6022 44.5308 62.2282 43.92 62.6732 43.1904C63.1182 42.4608 63.3682 41.6353 63.4005 40.7887" fill="#E52D52"/>
<path d="M6.30967 30.9667C6.16619 30.7408 6.05237 30.4986 5.97086 30.2455C5.84066 29.9539 5.72756 29.6554 5.63207 29.3515C5.52735 29.0058 5.37951 28.6125 5.28095 28.1595C5.01379 27.1189 4.83863 26.0582 4.75735 24.9888C4.56009 22.3669 4.9035 19.7332 5.76759 17.2408C6.12439 16.2257 6.56736 15.241 7.09198 14.2966C7.30141 13.8853 7.54782 13.5456 7.73878 13.2357C7.90606 12.9708 8.08697 12.7142 8.28084 12.4668C8.43008 12.2503 8.60363 12.0504 8.7983 11.8708C8.85374 11.9066 8.14534 12.8066 7.29527 14.4158C6.807 15.361 6.39511 16.3413 6.06327 17.3481C5.6621 18.5835 5.36948 19.8496 5.18855 21.1327C5.03315 22.4182 4.99192 23.7143 5.06534 25.0067C5.13242 26.0632 5.28275 27.1132 5.51503 28.1476C5.91542 29.9058 6.37127 30.9488 6.30967 30.9667Z" fill="#263238"/>
<path d="M1.71429 28.4574C1.61662 28.3099 1.54189 28.1492 1.49252 27.9807C1.31314 27.5375 1.171 27.0811 1.06748 26.6158C0.339134 23.5303 0.69686 20.2978 2.08388 17.4315C2.29057 17 2.52939 16.5837 2.79845 16.1858C2.98941 15.9057 3.10645 15.7567 3.12493 15.7686C3.14341 15.7805 2.7738 16.4302 2.29332 17.5208C1.0487 20.3786 0.709936 23.5297 1.32004 26.5741C1.51716 27.7363 1.76973 28.4396 1.71429 28.4574Z" fill="#263238"/>
<path d="M44.4955 29.6435C44.4215 29.6435 44.5571 28.5647 44.3846 26.8363C44.3428 26.3659 44.2729 25.8983 44.1752 25.4357C44.0951 24.9351 43.9411 24.4106 43.7932 23.8623C43.087 21.4701 41.851 19.2554 40.1712 17.3719C39.7708 16.9487 39.4073 16.5375 39.0131 16.1799C38.6674 15.8472 38.3034 15.5329 37.9228 15.2382C36.5244 14.1535 35.5142 13.6767 35.5512 13.6171C35.7984 13.6998 36.0359 13.8077 36.2595 13.9389C36.5343 14.073 36.7998 14.2243 37.0542 14.3919C37.4018 14.5977 37.7371 14.8226 38.0583 15.0653C38.4568 15.3511 38.8373 15.6596 39.1979 15.9891C39.618 16.3655 40.0169 16.7634 40.3929 17.1811C41.248 18.1359 41.9975 19.1746 42.629 20.2803C43.2394 21.3952 43.7247 22.57 44.0766 23.7848C44.2278 24.3144 44.3491 24.8516 44.44 25.394C44.5267 25.8651 44.5843 26.3408 44.6125 26.8185C44.6618 27.2535 44.6433 27.6529 44.6495 28.0105C44.6544 28.3072 44.638 28.604 44.6002 28.8985C44.5896 29.1495 44.5545 29.3989 44.4955 29.6435Z" fill="#263238"/>
</svg>
